<svg width="513" height="513" viewBox="0 0 513 513" fill="none" xmlns="http://www.w3.org/2000/svg"><path d="M434.98 512.005H77.09c-42.49 0-77.06-34.57-77.06-77.06V77.065C.04 34.575 34.61.005 77.1.005h357.89c42.49 0 77.06 34.57 77.06 77.06v357.89c-.01 42.48-34.58 77.05-77.07 77.05zM77.1 34.805c-23.3 0-42.26 18.96-42.26 42.26v357.89c0 23.3 18.96 42.26 42.26 42.26h357.89c23.3 0 42.26-18.96 42.26-42.26V77.065c0-23.3-18.96-42.26-42.26-42.26H77.1z" fill="#fff"></path><path d="M442.38 155.115c-.38-.18-.76-.35-1.15-.5-5.26-2.16-11.01-2.5-16.63-2.82-17.65-.99-55.58-3.49-89.11-5.69-.01-2-.02-4.49-.03-7.75-.03-7.38-.09-15-2.76-21.77s-8.64-12.53-15.33-12.13c-6.23.38-11.39 5.98-13.72 12.35-2.34 6.37-2.41 13.43-2.45 20.3-.02 2.72-.03 4.91-.05 6.76-15.32-.99-26.24-1.65-28.1-1.67-.01-4.58-.03-7.61-.05-9.9 0-.34 0-.67-.01-.98-.04-6.01-.09-6.67-.13-19.83-.02-7.38-.09-14.99-2.76-21.76-2.67-6.77-8.64-12.53-15.33-12.13-6.23.38-11.39 5.98-13.72 12.35-2.34 6.37-2.41 13.43-2.45 20.3-.08 13.7-.16 14.45-.24 21.07 0 .31-.01.64-.01.98-.03 2.36-.05 5.43-.08 9.91-1.82 0-12.66.67-27.97 1.68-.01-1.57-.02-3.37-.02-5.53-.03-7.38-.09-15-2.76-21.77s-8.64-12.53-15.33-12.13c-6.23.38-11.39 5.98-13.72 12.35-2.34 6.37-2.41 13.43-2.45 20.3-.02 3.97-.05 6.83-.07 9.08-35.1 2.38-75.53 5.15-94.48 6.33-7.8.48-16.87 1.77-20.87 9.16-2.9 5.37-1.94 12.49 1.13 17.75s7.89 8.95 12.82 12.03c18.82 11.73 40.52 16.27 61.78 20.63 24.6 5.05 49.21 10.09 73.81 15.14 9.14 1.87 19.23 4.41 24.49 12.85 3.65 5.86 4.12 13.35 4.48 20.45l4.47 88.89c.12 2.47.21 5.13-1.02 7.2-1.13 1.91-3.14 2.92-5.04 3.82-10.34 4.93-20.67 9.85-31.01 14.78-7.17 3.42-15.32 8.17-16.5 16.67-.96 6.94 3.54 13.68 9.2 16.91 5.66 3.24 12.23 3.72 18.6 4.06 25.62 1.36 51.3 1.3 76.91-.16 5.78-.33 11.72-.78 16.97-3.49 5.24-2.71 9.69-8.24 9.77-14.61.13-10.19-9.81-16.43-18.33-20.41-9.87-4.61-19.75-9.23-29.62-13.84-1.83-.85-3.78-1.82-4.8-3.7-.94-1.74-.88-3.89-.79-5.91l3.84-87.54c.42-9.56 1.27-20.18 7.71-26.62 4.1-4.1 9.74-5.67 15.13-7.06 27.84-7.18 55.88-13.42 84.07-18.71 14.36-2.69 28.88-5.17 42.44-11 13.95-6 50.1-31.16 21.27-44.69z" fill="#fff"></path></svg>