<svg width="596" height="317" viewBox="0 0 596 317" fill="none" xmlns="http://www.w3.org/2000/svg"><path d="M234.3.1L31.23 6.89C14.47 6.89.76 19.08.76 33.98l9.6 255.72c0 14.9 13.71 27.09 30.47 27.09H234.3c16.76 0 30.47-12.19 30.47-27.09V27.2c0-14.91-13.71-27.1-30.47-27.1zm-45.52 229.71c-17.69-11.45-34.7-23.65-52.14-35.38-16.73 12.72-32.95 25.95-49.88 38.5 5.62-20.23 11.74-39.98 17.48-60.09-16.65-12.69-35.18-23.39-51.83-36.07l62.77-1.92c6.04-19.92 11.85-40.08 17.46-60.41 7.76 19.1 14.38 39.41 21.45 59.22 21.04-.64 42.07-1.29 63.11-1.93-15.98 13.46-33.32 25.62-49.54 38.84 6.71 20.1 14.26 39.31 21.12 59.24zM565.33 6.89L362.26.1c-16.76 0-30.47 12.19-30.47 27.09V289.7c0 14.9 13.71 27.09 30.47 27.09h193.46c16.76 0 30.47-12.19 30.47-27.09l9.6-255.72c.01-14.9-13.71-27.09-30.46-27.09zM509.8 232.93c-16.92-12.55-33.15-25.77-49.88-38.5-17.44 11.73-34.45 23.92-52.14 35.38 6.86-19.93 14.41-39.14 21.12-59.23-16.22-13.22-33.56-25.39-49.54-38.84 21.04.64 42.08 1.29 63.11 1.93 7.07-19.81 13.69-40.12 21.45-59.22 5.6 20.34 11.42 40.49 17.46 60.41l62.77 1.92c-16.65 12.68-35.18 23.38-51.83 36.07 5.74 20.1 11.86 39.85 17.48 60.08z" fill="#909192"></path></svg>