<svg width="951" height="279" viewBox="0 0 951 279" fill="none" xmlns="http://www.w3.org/2000/svg"><path d="M53.76 271.94l138.19 6.96c12.67 0 23.04-10.37 23.04-23.04l-15.36-202.1c0-12.67-10.37-23.04-23.04-23.04L23.04 61.44C10.37 61.44 0 71.81 0 84.48L30.72 248.9c0 12.67 10.37 23.04 23.04 23.04zM288.71 278.9H426.9c12.67 0 23.04-10.37 23.04-23.04V23.04C449.94 10.37 439.57 0 426.9 0L273.35 15.36c-12.67 0-23.04 10.37-23.04 23.04l15.36 217.46c0 12.67 10.37 23.04 23.04 23.04zM523.66 278.9h138.19c12.67 0 23.04-10.37 23.04-23.04L700.25 38.4c0-12.67-10.37-23.04-23.04-23.04L523.66 0c-12.67 0-23.04 10.37-23.04 23.04v232.82c0 12.67 10.36 23.04 23.04 23.04zM758.61 278.9l138.19-6.93c12.67 0 23.04-10.37 23.04-23.04l30.72-164.45c0-12.67-10.37-23.04-23.04-23.04L773.97 30.72c-12.67 0-23.04 10.37-23.04 23.04l-15.36 202.1c-.01 12.67 10.36 23.04 23.04 23.04z" fill="#707171"></path></svg>