<svg width="776" height="279" viewBox="0 0 776 279" fill="none" xmlns="http://www.w3.org/2000/svg"><path d="M43.44 278.9h152.87c14.02 0 25.49-10.51 25.49-23.36V35.05c0-12.85-11.47-23.36-25.49-23.36L26.45 27.26C12.43 27.26.96 37.77.96 50.62l16.99 204.92c0 12.85 11.47 23.36 25.49 23.36zM304.86 278.9H471.7c14.85 0 27-12.15 27-27V27c0-14.85-12.15-27-27-27H304.86c-14.85 0-27 12.15-27 27v224.9c0 14.85 12.15 27 27 27zM580.24 278.9h152.87c14.02 0 25.49-10.51 25.49-23.36l16.99-204.92c0-12.85-11.47-23.36-25.49-23.36L580.24 11.69c-14.02 0-25.49 10.51-25.49 23.36v220.49c.01 12.85 11.48 23.36 25.49 23.36z" fill="#9A754F"></path></svg>