<svg width="680" height="678" fill="none" xmlns="http://www.w3.org/2000/svg"><g clip-path="url(#clip0)"><path d="M.2 495.5c0-13.3-.1-26.5-.1-39.8 0-5.8-.4-11.7.2-17.5 1.7-1.5 3.7-2.1 5.8-2.6 38.9-11.2 77.7-22.4 116.6-33.7 13.7-4 27.3-8 41-12 3.2-.9 3.3-1 2.7-3.6-2.2-10-4.5-20-6.6-30.1-.4-1.8-1.2-2.3-2.9-2.2-5 .4-10 .7-14.9 1.1-21.8 1.6-43.5 3.2-65.3 4.8-19.5 1.4-39 2.9-58.5 4.1-6 .4-11.9 1.4-17.9 1 0-17.8 0-35.7.1-53.5 7.8.5 15.7.9 23.5 1.4 14.1.9 28.2 1.9 42.3 2.9 13.8 1 27.6 2.1 41.4 3.1l46.5 3.3c4.6.3 5.5-.3 6.5-4.7 1.6-7.7 3.3-15.3 5-23 1.1-5.1.7-5.9-4.2-7.5-15.9-5.1-31.7-10.3-47.7-15.1C76 260.7 38.3 249.8.5 238.8c-.1-.7-.3-1.4-.3-2.1 0-18.6 0-37.1.1-55.7 1.5.1 2.7.9 4 1.4 35.6 15.3 71.1 30.7 106.7 46.1 21.4 9.3 42.9 18.6 64.3 27.8 4.8 2.1 3.7 2.1 6.3-1.8 3.8-5.7 7.5-11.5 11.2-17.2 1.8-2.8 3.7-5.7 5.6-8.7-2.4-1.6-4.5-3-6.7-4.4-61.9-39-123.7-78-185.6-117.1-2.1-1.3-4-2.8-5.5-4.7-.9-3.5-.5-7.1-.5-10.6V22.5c0-1.7.1-3.4.2-5.1.5.3 1 .6 1.4 1C45.1 55.5 88.6 92.6 132 129.7c24.9 21.2 49.7 42.5 74.6 63.7 3.3 2.8 6.7 5.4 10.4 7.5 4.3 2.5 8.8 2.7 12.9-.2 6.3-4.4 11.6-10.1 17.3-15.3 1-.9.8-1.7 0-2.5-.5-.5-.9-1.1-1.4-1.7C203 129.5 160.2 77.8 117.5 26c-6.8-8.2-13.9-16.3-20.3-24.9 1.6-.1 3.1-.3 4.7-.3 23.7 0 47.5 0 71.2.1 1.4 0 2.8.2 4.3.2 1.4 1 2.5 2.1 3.2 3.8 4.5 11 10.4 21.3 16.6 31.4 7.2 11.8 14.8 23.4 21.8 35.3 16 27.3 32.1 54.6 48.2 81.9 2.5 4.2 5.3 8.1 8.9 11.4 5.1 4.7 10.9 7.1 17.9 6.6 5.8-.4 11.1-2.4 16.2-5.1 3.4-1.8 4.2-3.4 3.7-7.3-1.2-8-2.4-16.1-3.6-24.1-3-19.9-6.1-39.7-9.1-59.6-2.7-17.8-5.5-35.5-8.1-53.3-1-7-2.4-14-2.9-21.2h76.9c0 .9.1 1.7 0 2.6-1.5 12.7-3.1 25.5-4.7 38.2-1.8 14.9-3.7 29.7-5.5 44.6-1.9 15.3-3.8 30.6-5.7 45.8-1.2 9.5-2.4 18.9-3.6 28.4-.4 3 .1 4.2 2.5 5.3 5.1 2.3 10.2 4.5 15.7 5.3 7.8 1.1 14.7-.8 20.4-6.5 2.9-2.9 5.1-6.2 7-9.7 27.5-49.5 55.6-98.6 81.8-148.8 1-1.9 2.2-3.7 3.8-5.1 2.4-.6 4.8-.5 7.2-.5 22.7 0 45.4.1 68 .1 2.1 0 4.3.2 6.4.3-.3.5-.6 1-1 1.4-48.2 60-96.5 119.9-144.7 179.9-1.1 1.3-2.3 2.5-3.1 4.4 8.5 5.4 17.1 10.9 25.6 16.4 2.1 1.4 4 1 5.9-.3.8-.6 1.5-1.3 2.3-1.9 17.1-14.7 34.3-29.3 51.3-44.1L670.4 5.2c1.7-1.5 3.6-2.8 5.4-4.2 1.3 0 2.2-1.3 3.6-.9.6 1.1.3 2.2.3 3.3 0 26.7.1 53.5.1 80.2 0 1.7-.1 3.4-.2 5.1-1.4 2.2-3.4 3.8-5.6 5.2-56.4 35.9-112.9 71.9-169.3 107.9-13 8.3-26 16.6-38.9 24.9-2.8 1.8-2.7 1.9-.9 4.5 4.8 6.9 9.5 13.9 14.3 20.8 3.2 4.5 4.3 4.8 9.3 2.9.9-.4 1.8-.8 2.8-1.1 60.4-24.8 120.7-49.6 181.1-74.3 2.4-1 4.6-2.3 7.3-2.3 0 19.1-.1 38.2-.1 57.2-1.7 2.2-4.2 2.8-6.7 3.4-36.5 10.1-73.1 20.2-109.6 30.3-21.6 6-43.1 11.9-64.7 17.9-3.8 1.1-3.9 1.1-3 4.9 1.8 8.4 4.1 16.6 5.5 25.1.9 5 3.6 6 7.7 5.7 11.2-1 22.5-1.5 33.7-2.3 14.4-1 28.8-1.9 43.2-2.9 15-1 29.9-2.1 44.9-3.1 11.7-.8 23.4-1.6 35-2.2 4.7-.3 9.4-.9 14.1-.3 0 18.2-.1 36.3-.1 54.5h-3.8c-14.7-1-29.3-2-44-3-18.7-1.3-37.3-2.4-56-3.7-22.6-1.6-45.3-3.2-67.9-4.8-5-.4-6.1.4-6.9 5.3-1.3 8.2-2.9 16.3-4.7 24.4-1 4.5-.4 5.5 4.1 6.7 5.6 1.6 11.3 3.1 16.9 4.6 54.1 14.9 108.3 29.8 162.4 44.7v58.8c-2.6.4-4.7-1-6.9-1.9l-125.7-51.6c-19.5-8-39-16.1-58.5-24.1-5.5-2.3-6.8-1.8-9.8 3.1l-9 14.1c-2 3.1-4 6.2-6.2 9.5 6.8 4.5 13.2 9 19.8 13.2 63.6 40.7 127.1 81.1 190.7 121.5 2.2 1.4 4.2 2.9 5.7 5.1.1 3.7.2 7.4.2 11.1 0 26-.1 51.9-.1 77.9-4.2-.4-7.5-2.5-10.1-5.7-1.9-2.4-4.1-4.4-6.5-6.1-1.9-1.3-3.4-2.8-4.9-4.6-2-2.2-4.1-4.4-6.7-5.9-.8-.5-1.5-.9-2-1.6-3.4-4.8-8.5-7.8-12.7-11.8-3.4-3.2-7-6.3-10.6-9.4-3.2-2.8-6.4-5.5-9.6-8.3-3.1-2.7-6.3-5.5-9.4-8.2-3.4-3-6.8-5.9-10.2-8.9-3.1-2.7-6.3-5.4-9.4-8.2-5.4-4.7-10.6-9.6-16.3-14-3.1-2.4-5.9-5.1-8.9-7.6-6.3-5.5-12.7-11-19.1-16.4-2.3-2-4.9-3.8-7-6-5.2-5.4-11.1-9.8-16.7-14.7-5-4.4-10-8.9-15.3-13.1-2.4-1.9-5-3.7-7-6-3-3.4-6.8-5.9-10-9-2.9-2.8-6.1-5.2-9.2-7.8-3.6-3.1-7.1-6.4-10.8-9.5-2.7-2.2-5.3-4.5-7.9-6.7-3.8-3.3-7.8-6.2-12.4-8.2-7.5-3.1-14.9-3-22 1.3-2.7 1.6-5.1 3.7-7.3 5.9-5.7 5.6-5.8 5.9-.6 12.2 36.7 45.2 73.5 90.4 109.6 136.1 9.9 12.5 19.9 25.1 29.8 37.6 1 1.3 2.4 2.4 2.3 4.4-.8 0-1.3.1-1.9.1-24.7 0-49.4 0-74.1.1-3.5 0-5.4-1.4-6.9-4.5-6.6-13.9-13.5-27.7-21.1-41.1l-62.4-109.8c-1.7-3-3.5-5.9-5.8-8.4-5.5-6.1-12.4-8.5-20.5-7.1-2.5.4-5 1-7.5 1.8-10.3 3.2-12.6 6.5-11.3 17.3 1.4 11.8 3.1 23.5 4.6 35.2 2.2 16.4 4.3 32.8 6.4 49.2 1.9 14.3 3.7 28.6 5.6 42.9.9 7.1 1.8 14.1 2.8 21.2.3 2-.3 3-2.4 2.9-1-.1-2 0-3 0h-60.4c-2.9 0-5.7.1-8.6 0-2.5-.1-2.7-.3-2.3-2.8 1.2-8 2.4-16.1 3.7-24.1 2.7-17.9 5.4-35.8 8.2-53.7l9-58.8c1-6.3 2-12.7 2.8-19 .6-4.4 0-5.4-4.1-7.3-3.2-1.5-6.5-2.8-10-3.8-13.4-3.7-22.7 0-29.9 11.8-.7 1.2-1.4 2.5-2.1 3.7-12.3 21.6-24.6 43.2-36.9 64.7-16.2 28.2-32.5 56.4-48.8 84.6-1.8 3.2-3.8 5.3-7.9 5.3-24.1-.2-48.3-.1-72.4-.2-1.2 0-2.6.4-3.6-.8 0-1 .7-1.6 1.2-2.2 4.3-5.5 8.5-11.2 12.9-16.5 29.5-35.6 59.1-71.2 88.6-106.8 15-18 30-35.9 45.1-53.9 2.9-3.5 3-5.2-.2-8-3-2.7-5.6-5.9-9.2-8-5.8-3.4-11.9-5.6-18.8-3.9-5 1.2-9.1 4-12.9 7.2-10.5 9-21 18.1-31.4 27.1-24.9 21.6-49.7 43.3-74.6 64.8-31.4 27.1-63 54.1-94.5 81.2-1.2 1-2.2 2.3-3.8 2.6-.1-2.9-.2-5.7-.2-8.6v-71.9c0-1.4.1-2.8.2-4.3 1.4-2.3 3.5-3.6 5.7-5C52.5 540.2 98.8 511 145 481.9c17-10.7 34-21.5 51-32.2 3.3-2.1 3-1.9 1-4.8-4.4-6.3-8.8-12.7-13.2-19-4.9-7-5-6.9-12.8-3.6-54.7 23.6-109.4 47.3-164 70.9-2.5.9-4.5 1.9-6.8 2.3z" fill="#DF2228"/><path d="M.3 659c1.6-.3 2.7-1.6 3.8-2.6 31.5-27 63.1-54 94.5-81.2 25-21.5 49.8-43.2 74.6-64.8 10.5-9.1 20.9-18.1 31.4-27.1 3.8-3.3 7.9-6 12.9-7.2 6.9-1.7 13 .4 18.8 3.9 3.6 2.1 6.1 5.3 9.2 8 3.1 2.8 3.1 4.5.2 8-15 18-30.1 35.9-45.1 53.9-29.6 35.6-59.1 71.2-88.6 106.8-4.5 5.4-8.6 11-12.9 16.5-.5.7-1.2 1.3-1.2 2.2 1 1.2 2.4.8 3.6.8 24.1 0 48.3 0 72.4.2 4.2 0 6.1-2.1 7.9-5.3 16.2-28.2 32.5-56.4 48.8-84.6 12.4-21.5 24.6-43.1 36.9-64.7.7-1.2 1.4-2.5 2.1-3.7 7.2-11.9 16.4-15.5 29.9-11.8 3.5.9 6.7 2.3 10 3.8 4.1 1.9 4.7 2.9 4.1 7.3-.9 6.4-1.9 12.7-2.8 19l-9 58.8c-2.7 17.9-5.4 35.8-8.2 53.7-1.2 8-2.5 16.1-3.7 24.1-.4 2.5-.2 2.7 2.3 2.8 2.9.1 5.7 0 8.6 0h60.4c1 0 2-.1 3 0 2.2.2 2.7-.9 2.4-2.9-1-7.1-1.9-14.1-2.8-21.2-1.9-14.3-3.7-28.6-5.6-42.9-2.1-16.4-4.3-32.8-6.4-49.2-1.5-11.7-3.2-23.5-4.6-35.2-1.3-10.7 1-14.1 11.3-17.3 2.4-.8 5-1.3 7.5-1.8 8.1-1.4 14.9 1 20.5 7.1 2.3 2.6 4.1 5.5 5.8 8.4l62.4 109.8c7.6 13.4 14.5 27.2 21.1 41.1 1.5 3.1 3.4 4.5 6.9 4.5 24.7-.1 49.4-.1 74.1-.1.6 0 1.1-.1 1.9-.1.1-2-1.3-3.1-2.3-4.4-9.9-12.6-19.8-25.1-29.8-37.6-35.9-45.6-72.6-90.8-109.4-136-5.1-6.3-5.1-6.6.6-12.2 2.3-2.2 4.6-4.2 7.3-5.9 7.1-4.3 14.5-4.5 22-1.3 4.6 1.9 8.6 4.9 12.4 8.2 2.6 2.2 5.2 4.6 7.9 6.7 3.7 3 7.2 6.3 10.8 9.5 3 2.6 6.3 5.1 9.2 7.8 3.2 3.1 7 5.6 10 9 2 2.3 4.6 4.1 7 6 5.3 4.1 10.3 8.7 15.3 13.1 5.5 4.9 11.5 9.4 16.7 14.7 2.1 2.1 4.7 4 7 6 6.4 5.5 12.8 10.9 19.1 16.4 2.9 2.5 5.8 5.2 8.9 7.6 5.6 4.4 10.9 9.3 16.3 14 3.1 2.7 6.3 5.5 9.4 8.2 3.4 3 6.8 5.9 10.2 8.9 3.1 2.7 6.3 5.5 9.4 8.2 3.2 2.8 6.4 5.6 9.6 8.3 3.6 3.1 7.2 6.2 10.6 9.4 4.2 3.9 9.2 7 12.7 11.8.5.7 1.2 1.1 2 1.6 2.6 1.5 4.7 3.7 6.7 5.9 1.5 1.7 3 3.2 4.9 4.6 2.4 1.7 4.6 3.8 6.5 6.1 2.5 3.2 5.9 5.3 10.1 5.7-1.3 1.5-2.9.7-4.4.7H6.6c-7.1 0-6.3.8-6.3-6.5-.1-3.8 0-7.6 0-11.5zM675.9 1.2c-1.8 1.4-3.7 2.7-5.4 4.2-57.9 50.5-115.7 101-173.7 151.5-17 14.8-34.2 29.4-51.3 44.1-.8.7-1.5 1.4-2.3 1.9-1.9 1.3-3.8 1.7-5.9.3-8.5-5.5-17-10.9-25.6-16.4.7-1.9 2-3.1 3.1-4.4 48.2-60 96.5-119.9 144.7-179.9.4-.4.6-.9 1-1.4 1.4 0 2.8-.1 4.3-.1h106.5c1.5 0 3.1.2 4.6.2zM97.2 1.1c6.4 8.6 13.5 16.6 20.3 24.9 42.8 51.7 85.5 103.4 128.3 155.2.5.6.9 1.1 1.4 1.7.8.9 1 1.6 0 2.5-5.7 5.2-11 10.8-17.3 15.3-4.2 2.9-8.6 2.7-12.9.2-3.7-2.1-7.1-4.7-10.4-7.5-24.9-21.2-49.7-42.5-74.6-63.7C88.6 92.6 45.1 55.4 1.7 18.4c-.4-.4-.9-.6-1.4-1C.3 13.1.2 8.8.2 4.6c0-3.5.1-3.5 3.7-3.5h91.2c.7-.1 1.4 0 2.1 0zM679.701 587.3c-1.4-2.2-3.5-3.7-5.7-5.1-63.5-40.4-127-80.8-190.6-121.2-6.6-4.2-13-8.7-19.8-13.2 2.2-3.3 4.2-6.4 6.2-9.5l9-14.1c3.1-4.9 4.4-5.3 9.8-3.1 19.5 8 39 16.1 58.5 24.1 41.9 17.2 83.8 34.5 125.7 51.6 2.2.9 4.3 2.3 6.9 1.9 0 27.1.1 54.2.1 81.3 0 2.5 0 4.9-.1 7.3zM679.801 177.5c-2.7 0-4.9 1.3-7.3 2.3-60.4 24.8-120.7 49.6-181.1 74.3-.9.4-1.8.8-2.8 1.1-5 1.9-6.1 1.6-9.3-2.9-4.8-6.9-9.6-13.8-14.3-20.8-1.8-2.6-1.8-2.8.9-4.5 13-8.3 25.9-16.7 38.9-24.9 56.4-36 112.9-71.9 169.3-107.9 2.2-1.4 4.2-2.9 5.6-5.2.1.6.1 1.1.1 1.7v86.8zM290 1.1c.5 7.1 1.8 14.1 2.9 21.2 2.6 17.8 5.4 35.5 8.1 53.3 3 19.9 6.1 39.7 9.1 59.6 1.2 8 2.5 16.1 3.6 24.1.6 3.9-.2 5.5-3.7 7.3-5.1 2.7-10.3 4.7-16.2 5.1-7 .4-12.9-2-17.9-6.6-3.6-3.3-6.4-7.2-8.9-11.4-16.1-27.3-32.2-54.5-48.2-81.9-7-12-14.5-23.5-21.8-35.3-6.2-10.1-12-20.4-16.6-31.4-.7-1.7-1.8-2.8-3.2-3.8 1.1-.1 2.3-.2 3.4-.2h106.6c1.1-.1 1.9 0 2.8 0zM478.801 1.2c-1.6 1.4-2.8 3.2-3.8 5.1-26.2 50.2-54.3 99.3-81.8 148.8-1.9 3.5-4.1 6.8-7 9.7-5.7 5.7-12.6 7.6-20.4 6.5-5.6-.8-10.7-3-15.7-5.3-2.4-1.1-2.9-2.3-2.5-5.3 1.2-9.5 2.4-18.9 3.6-28.4 1.9-15.3 3.8-30.6 5.7-45.8 1.8-14.9 3.7-29.7 5.5-44.6 1.6-12.7 3.1-25.5 4.7-38.2.1-.8 0-1.7 0-2.6 11.1 0 22.2-.1 33.3-.1h73c1.7 0 3.5.2 5.4.2zM.6 102.4c1.5 1.9 3.5 3.4 5.5 4.7 61.9 39 123.8 78 185.6 117.1 2.2 1.4 4.3 2.8 6.7 4.4-1.9 3-3.7 5.9-5.6 8.7-3.7 5.7-7.4 11.5-11.2 17.2-2.6 3.9-1.5 3.8-6.3 1.8-21.5-9.2-42.9-18.5-64.3-27.8-35.6-15.4-71.1-30.7-106.7-46.1-1.3-.6-2.5-1.4-4-1.4 0-25.2-.1-50.4-.1-75.6 0-1 .2-2 .4-3zM.2 495.5c2.3-.4 4.3-1.4 6.4-2.3 54.7-23.6 109.4-47.3 164-70.9 7.8-3.4 7.9-3.4 12.8 3.6 4.5 6.3 8.8 12.6 13.2 19 2 2.8 2.3 2.7-1 4.8-17 10.8-34 21.5-51 32.2C98.4 511 52.2 540.2 5.9 569.3c-2.2 1.4-4.3 2.8-5.7 5v-78.8zM679.8 311.3c-4.7-.6-9.4 0-14.1.3-11.7.7-23.4 1.5-35 2.2-15 1-29.9 2.1-44.9 3.1-14.4 1-28.8 1.9-43.2 2.9-11.3.7-22.5 1.3-33.7 2.3-4.1.4-6.8-.7-7.7-5.7-1.5-8.4-3.7-16.7-5.5-25.1-.8-3.8-.8-3.9 3-4.9 21.5-6 43.1-12 64.7-17.9 36.5-10.1 73.1-20.2 109.6-30.3 2.5-.7 5-1.2 6.7-3.4.1 2.3.2 4.6.2 6.8-.1 23.2-.1 46.4-.1 69.7zM679.7 439.9c-54.1-14.9-108.2-29.8-162.4-44.7-5.6-1.6-11.3-3-16.9-4.6-4.5-1.3-5-2.2-4.1-6.7 1.8-8.1 3.4-16.2 4.7-24.4.8-4.9 1.9-5.7 6.9-5.3 22.6 1.6 45.3 3.2 67.9 4.8 18.7 1.3 37.3 2.5 56 3.7 14.7 1 29.3 2 44 3 1.3.1 2.6 0 3.8 0 .1 3.3.2 6.5.2 9.8v59.2c0 1.8 0 3.5-.1 5.2zM.3 365c6 .4 12-.6 17.9-1 19.5-1.2 39-2.7 58.5-4.1 21.8-1.6 43.5-3.2 65.3-4.8 5-.4 10-.7 14.9-1.1 1.7-.1 2.5.4 2.9 2.2 2.1 10 4.4 20 6.6 30.1.6 2.6.5 2.7-2.7 3.6-13.7 4-27.3 8-41 12C83.8 413.1 45 424.3 6.1 435.6c-2 .6-4.1 1.2-5.8 2.6 0-8.1-.1-16.3-.1-24.4 0-16.2.1-32.5.1-48.8zM.5 238.8c37.7 11 75.5 21.9 113.2 33.1 16 4.7 31.8 10 47.7 15.1 4.9 1.6 5.3 2.4 4.2 7.5-1.7 7.7-3.3 15.3-5 23-.9 4.4-1.9 5-6.5 4.7l-46.5-3.3c-13.8-1-27.6-2.1-41.4-3.1-14.1-1-28.2-2-42.3-2.9-7.8-.5-15.7-.9-23.5-1.4-.1-2.3-.2-4.6-.2-6.8v-60.3c0-1.9.2-3.8.3-5.6z" fill="#DEDBC3"/></g><defs><clipPath id="clip0"><path fill="#fff" d="M0 0h680v677.2H0z"/></clipPath></defs></svg>