<svg width="512" height="513" viewBox="0 0 512 513" fill="none" xmlns="http://www.w3.org/2000/svg"><path d="M434.94 512.005H77.06c-42.49 0-77.06-34.57-77.06-77.06V77.065C0 34.575 34.57.005 77.06.005h357.89c42.48 0 77.05 34.57 77.05 77.06v357.89c0 42.48-34.57 77.05-77.06 77.05zM77.06 34.805c-23.3 0-42.26 18.96-42.26 42.26v357.89c0 23.3 18.96 42.26 42.26 42.26h357.89c23.3 0 42.26-18.96 42.26-42.26V77.065c0-23.3-18.96-42.26-42.26-42.26H77.06z" fill="#fff"></path><path d="M372.95 83.225c-1.41-.08-2.81-.17-4.22-.26-6.87 6.71-13.48 13.68-20.67 20.06-14.08 12.49-28.19 24.98-42.89 36.82-7.14 5.75-15.04 10.59-19.78 18.55-.51.86-1.48 1.48-1.76 1.75-5.74-5.53-11.42-10.83-16.84-16.35-1.26-1.28-2.31-3.34-2.28-5.01.07-4.97.15-9.9 3.47-14.4 2.4-3.27 1.3-7.24-1.08-10.5-4.91-6.71-11.38-11.88-19.13-15.35-6.85-3.07-19.22.64-24.25 7.02-5.88 7.46-7.39 16.15-6.87 25.2.26 4.54 3.94 6.78 7.92 8.54 1.13.5 2.44.81 3.35 1.55 6.15 5.02 6.05 8.28-.8 12.28-4.85 2.83-10.38 4.67-15.09 7.66-11.39 7.22-14.99 18.87-18.4 30.51-1.23 4.2-2.2 8.47-3.63 12.6-3.7 10.67 1.31 20.8 12.49 24.86 1.45.52 3.01.84 4.34 1.56 2.33 1.27 2.63 4.43.38 5.59-9.95 5.12-11.13 14.08-11.59 23.32-.15 3.02.29 6.08.51 9.12.52 7.09 5.35 10.58 11.83 13.03 1.72.65 3.88 2.66 4.06 4.22 2.03 17.45 2.35 34.85-1.78 52.13-1.41 5.89-1.87 12.04-2.04 18.1-.05 2.02 1.96 4.24 3.38 6.13 2.52 3.35 4.37 6.69 3.77 11.03-1.11 8.01-5.6 12.45-14.03 14.02-2.36.44-5.8 1.67-7.32 3.8-1.21 1.69-1.86 4-3.53 4.68l49.09 1.37c-.58-.55.17.18.21-.99.26-7.54 0-16.29.32-23.83.05-1.12.6-2.39 1.35-3.26 3.54-4.14 4.31-8.84 3.15-13.86-3.98-17.1.26-33.42 4.97-49.66 1.91-6.59 4.32-13.04 6.63-19.91 4.73 16.95 9.11 33.46 14.02 49.83 2.12 7.09 5.01 14.02 8.11 20.81 3.27 7.16 7.09 14.11 10.89 21.05 4.08 7.45 4.76 15.85 3.21 23.91l29.56 3.84c.16-2.43-1.24-.9-2.96-5.19-5.54-13.89-6.04-30.47-8.7-45.19-.79-4.37-2.75-8.66-4.81-12.71-5.69-11.22-7.66-23.23-9.25-35.32-.47-3.54.01-7.18-.5-10.71-.7-4.8-1.63-9.62-3.02-14.29-1.05-3.54-1.32-6.78-.55-10.46.79-3.77 1.1-8.07-.02-11.7-2.21-7.15-2.97-14.23-2.58-21.58.45-8.33.49-16.69.9-25.02.06-1.27.82-3.1 1.82-3.54.87-.38 2.65.69 3.83 1.4 3.55 2.15 6.83 4.73 10.52 6.62 7.62 3.9 15.73 1.29 18.49-6.38 3.17-8.81 5.99-17.56 3.69-27.47-2.14-9.26-2.31-18.88 3.41-27.71 2.05-3.16 2.95-7.14 3.66-10.87 1.69-8.94 7.24-15.56 13.59-21.85 5.89-5.84 11.71-11.75 17.37-17.79 1.3-1.39 2.62-3.43 2.57-5.14-.11-3.94 1.51-6.76 4.24-9.5 3.44-3.45 3.21-4.23-.73-7.16z" fill="#fff"></path><path d="M239.76 396.125c0 3.13-11.41 5.67-25.49 5.67-14.08 0-24.35-2.75-25.49-5.67-1.07-2.75 5.82-6.38 7.11-7.06 3.87-2.04 7.82 1.39 18.38 1.39 14.08 0 25.49 2.54 25.49 5.67zM322.64 403.535c3.78 8.57-6.13 8.1-14.68 7.28-8.55-.82-15.89-6.51-15.59-9.63.3-3.12 6.77-5.61 15.33-4.79 8.55.82 13.32 3.46 14.94 7.14z" fill="#fff"></path></svg>