<svg width="513" height="513" viewBox="0 0 513 513" fill="none" xmlns="http://www.w3.org/2000/svg"><path d="M435 512.005H77.11c-42.49 0-77.06-34.57-77.06-77.06V77.065C.06 34.575 34.63.005 77.12.005h357.89c42.49 0 77.06 34.57 77.06 77.06v357.89c-.01 42.48-34.58 77.05-77.07 77.05zM77.12 34.805c-23.3 0-42.26 18.96-42.26 42.26v357.89c0 23.3 18.96 42.26 42.26 42.26h357.89c23.3 0 42.26-18.96 42.26-42.26V77.065c0-23.3-18.96-42.26-42.26-42.26H77.12z" fill="#fff"></path><path d="M401.02 188.635c-1.29-2.32-3.56-3.66-5.79-4.69-.8-.37-1.61-.71-2.43-1.03-4.31-1.69-8.81-2.73-13.3-3.72-34.49-7.55-69.54-11.74-104.65-12.62-.01-1.54-.03-3.49-.04-6.13-.03-5.44-.1-11.05-3.01-16.04-1.61-2.76-4.33-5.29-7.67-6.95-.13-2.05-.44-4.08-1.22-5.95-1.27-3.04-4.11-5.62-7.29-5.44-2.96.17-5.41 2.68-6.52 5.54-.7 1.79-.97 3.7-1.08 5.63-3.54 1.69-6.34 4.4-7.93 7.34-2.55 4.69-2.63 9.9-2.68 14.96-.03 3.13-.05 5.34-.08 7.05-35.14.87-70.21 5.07-104.73 12.62-4.48.98-8.98 2.03-13.3 3.72-.82.32-1.63.66-2.43 1.03-2.23 1.03-4.5 2.37-5.79 4.69-1.18 2.13-1.37 4.84-.94 7.32 1.57 9.05 10 14.04 17.64 17.03 36.13 14.15 75.9 12.9 111.77 27.88.98.41 2 .87 2.65 1.8.7 1.01.83 2.38.93 3.66 2.2 27.98 4.39 55.95 6.59 83.93-9.62 1.14-19.64 2.45-27.76 8.46-1.44 1.07-2.82 2.3-3.75 3.95-3.44 6.13 1.12 14.32 6.64 17.97 6.54 4.33 14.65 5.23 21.87 2.82 3.27-1.09 6.93-2.53 8.49-6.08.36-.81.62-1.7.83-2.61.22.91.48 1.8.83 2.61 1.56 3.55 5.22 4.99 8.49 6.08 7.22 2.41 15.33 1.51 21.87-2.82 5.51-3.65 10.08-11.84 6.64-17.97-.92-1.65-2.31-2.88-3.74-3.95-8.11-6.02-18.14-7.32-27.76-8.46 2.2-27.98 4.39-55.96 6.59-83.93.1-1.29.23-2.65.93-3.66.65-.93 1.67-1.39 2.65-1.8 35.88-14.98 75.64-13.73 111.77-27.88 7.64-2.99 16.06-7.97 17.63-17.03.45-2.49.27-5.2-.92-7.33z" fill="#fff"></path></svg>