<svg width="648" height="648" viewBox="0 0 648 648" fill="none" xmlns="http://www.w3.org/2000/svg">
<g clip-path="url(#clip0)">
<path d="M0 323.4C0.5 142.4 147.7 -0.500035 324.7 -3.46835e-05C503 0.599965 648 146.1 647.3 325C646.6 500.7 504.1 647.7 322.7 647.1C143.9 646.8 0.1 502 0 323.4ZM323.7 127.4C213.4 127.9 127.8 216.6 127.4 323C127.1 430.9 213.7 518.9 321.9 519.9C429.9 520.9 519.8 434.4 519.9 323.9C520 215.1 432.4 127.9 323.7 127.4Z" fill="#435184"/>
<path d="M323.7 127.4C432.4 127.9 520 215 519.9 323.8C519.8 434.3 429.9 520.8 321.9 519.8C213.8 518.8 127.1 430.8 127.4 322.9C127.8 216.7 213.5 127.9 323.7 127.4ZM324 260.2C291.7 259.2 260.2 285.5 260.1 323.3C260 361.7 291.5 386.8 323 387.1C356.6 387.4 387.1 360.1 387.1 323.7C387.1 286 355.7 259.5 324 260.2Z" fill="#DEDCC5"/>
<path d="M324 260.2C355.6 259.5 387.1 286 387.1 323.7C387.1 360.1 356.6 387.5 323 387.1C291.5 386.8 260 361.6 260.1 323.3C260.3 285.5 291.8 259.3 324 260.2Z" fill="#D02030"/>
</g>
<defs>
<clipPath id="clip0">
<rect width="647.3" height="647.1" fill="white"/>
</clipPath>
</defs>
</svg>
