<svg width="513" height="513" viewBox="0 0 513 513" fill="none" xmlns="http://www.w3.org/2000/svg"><path d="M434.96 512.005H77.07c-42.49 0-77.06-34.57-77.06-77.06V77.065C.02 34.575 34.59.005 77.08.005h357.89c42.49 0 77.06 34.57 77.06 77.06v357.89c-.01 42.48-34.58 77.05-77.07 77.05zM77.08 34.805c-23.3 0-42.26 18.96-42.26 42.26v357.89c0 23.3 18.96 42.26 42.26 42.26h357.89c23.3 0 42.26-18.96 42.26-42.26V77.065c0-23.3-18.96-42.26-42.26-42.26H77.08z" fill="#fff"></path><path d="M167.24 223.585l2.36 2.26 15.17.43 2.54-.15 2.75-.12 9.28 4.45c-2.24.97-4.47 2.07-6.76 2.93-3.97 1.49-7.73.85-11.95.89-6.86.06-13.85 4.03-20.18 6.5-4.5 1.75-9.01 3.5-13.51 5.26-1.87.73-5.76-.26-7.73-.34-.09 0 .13 6.23 0 6.79-.55 2.34.11 2.01-2.42 2.62-2.93.7-6.4-.52-9.38-.5-5.07.03-13.32-1.38-18.18.57-.19.08-.39.16-.57.25-1.74.85-3.23 2.12-4.69 3.38-1.31 1.14-2.64 2.3-3.59 3.76-.95 1.46-1.48 3.27-1.05 4.95.12.48.33.95.69 1.29.33.32.77.49 1.19.67 1.93.78 4.12 1.43 5.84 2.54-2.31 1.85-4.88 4.48-6.2 7.2-.89 1.82-2.53 6.7-2.21 8.66.77 3.54 1.15 7.49 2.68 10.77 2.78 5.95 9.1 9.94 14.37 13.42 6.22 4.11 12.7 7.82 18.71 12.23 5.98 4.38 11.91 9.21 19.17 11.3 5.11 1.47 10.51 1.47 15.83 1.45 53.48-.15 106.95-.25 160.42-.18 2.43 0 4.85.01 7.28.01 6.97.01 13.94.02 20.91.04 1.98 0 3.98 0 5.9-.48 2.03-.52 3.89-1.56 5.71-2.6 16.13-9.29 31.13-19.76 45.04-32.11 2.86-2.53 5.79-5.19 7.36-8.67 2.19-4.87 1.94-13.23.04-18.19-.6-1.58-5.87-8.44-7.57-8.43 3.05-.02 6.1-.03 9.15-.05-.58-5.71-1.17-11.43-1.75-17.14-4.2-.01-8.4-.01-12.6-.01-5.33 0-12.48-4.61-17.5-6.3-8.41-2.84-16.99-5.16-25.69-6.95-22.51-4.64-30.4-4.39-53.17-5.71v-5.22c0 3.1 26.82-6.23 30.14-7-.48-4.67-.95-9.33-1.43-14 0-1.18-25.26-7.17-27.45-7.79a571.36 571.36 0 0 0-19.91-5.25c-1.35-.33-2.76-.69-3.78-1.64-1.82-1.68-1.02-6.39-1.13-8.63-.02-.32-.05-.68-.29-.9-.22-.2-.53-.21-.82-.23-12.07-.39-24.13-.81-36.19-1.22.16 0-2.46 5.27-2.79 5.73-1.48 2.05-3.38 3.8-5.53 5.13-4.38 2.72-10.2 3.56-15.09 5.11-8.88 2.81-18.05 7.08-27.49 7.23-1.78.03-3.59-.09-5.33.28-2.66.56-8.58 3.14-10.46 5.03-.58.59-.31.6-.58.59l-13.85-.16-3.69 2.39-75.79-1.34-7.23-2.72-10.25-.22-.01.54-2.12 4.4-.11 8.34 1.92 4.9 10.92.24 7.33-2.27 75.32 1.99z" fill="#fff"></path></svg>