<svg width="752" height="747" fill="none" xmlns="http://www.w3.org/2000/svg"><g clip-path="url(#clip0)" fill="#DEDBC5"><path d="M158 671.3c-.8-1.9-.2-3.8.4-5.7 5.8-17.9 11.6-35.9 17.3-53.8 13.8-43.5 28.4-86.8 42.7-130.2 6.3-19.1 12.3-38.2 18.6-57.3 1.5-4.5 1.1-8-2.8-11-5.2-4-10.2-8.3-15.5-12.3-13.1-9.9-26.1-19.8-39.3-29.5-10.2-7.5-20.6-14.9-31-22.3-20.4-14.4-40.7-28.9-60.9-43.6-14.1-10.3-28.3-20.5-42.2-31-6.5-4.9-12.8-9.9-19.2-15-1.2-.9-2.5-1.9-2.8-3.7 1.4-1.2 3.2-.7 4.7-.7h121.7c44.7 0 89.4-.1 134.2.1 5.6 0 8.2-1.6 10-7.3 9.4-30.1 19.8-60 29.6-90 5.7-17.3 11.2-34.7 16.7-52.1 5.6-17.7 11.2-35.3 16.7-53 5.3-16.8 10.4-33.6 15.7-50.5.3-.8.5-1.8 1.9-2.4 1.9 2.1 3.1 4.8 3.9 7.4 3.6 11.7 8 23.2 12 34.8 5.8 17 11.6 33.9 17.2 51 7.6 23.2 14.9 46.4 22.3 69.6 5.7 18 11.4 35.9 17.1 53.9 3.3 10.4 6.5 20.8 9.8 31.1 2.1 6.5 3.5 7.4 10.3 7.4h262.2c-2.5 3.1-4.7 5.3-7.2 7.2-16.3 12.2-32.6 24.4-49 36.5-10.8 8-21.8 15.9-32.7 23.8-18 13-36 26-54.1 38.9-16.4 11.6-32.5 23.6-48.6 35.5-7.1 5.3-14.2 10.7-21.5 15.8-2.8 2-3.3 4.2-2.4 7.1 2.2 7.2 4.4 14.4 6.6 21.5 9.4 31 20 61.5 30.1 92.3 7.1 21.7 14.4 43.4 21.4 65.1 7.4 22.9 14.5 45.9 21.8 68.8.1.4.3.9.4 1.3.4 1.8-.6 2.8-2.2 1.9-2.3-1.2-4.5-2.7-6.6-4.2-13.7-9.8-27.4-19.7-41-29.6-15.4-11.1-30.8-22.3-46.1-33.4-12.7-9.2-25.3-18.3-38-27.5-18.2-13.2-36.4-26.3-54.4-39.9-8.1-6.1-16.3-12-24.5-17.9-4.3-3.1-6.2-3.2-10.8.1-11.1 7.9-22.1 16-33.1 24s-22.1 16-33.1 24c-13.9 10.1-27.7 20.2-41.6 30.4-14 10.2-27.9 20.5-41.9 30.6-15.1 11-30.3 21.9-45.5 32.7-4.9 3.5-9.8 6.9-14.7 10.3-.7.5-1.5 1.1-2.6.8z"/><path d="M373.5 746.7c-8.3.7-17.3-.5-26.3-1.1-26.7-1.9-53.1-5.5-79-12.7-18.7-5.2-36.8-11.7-53.8-21-2.7-1.5-5.3-3.1-7.8-4.8-2.1-1.4-2.2-2.2-.2-3.9 2.8-2.4 5.8-4.6 8.7-6.8 11.6-8.6 23.2-17 34.7-25.6 3.6-2.7 7-3.1 11.1-1.2 12.7 6 26.1 9.7 39.7 12.6 10.9 2.3 21.9 4.2 32.9 5.6 7.1.9 14.299 1.2 21.4 1.9 12.3 1.2 24.5.9 36.8.5 8.7-.3 17.3-1.2 26-2.4 9.5-1.3 19-2.8 28.5-4.6 15.3-2.9 29.999-7.6 44.2-13.7 4.299-1.9 7.7-1.2 11.2 1.2 6.8 4.9 13.699 9.8 20.4 14.9 6.9 5.3 14 10.4 21.2 15.4.8.5 1.599 1 2.3 1.6 1.4 1.1 1.4 2.2-.201 3.3-4.7 3.2-9.599 6.1-14.599 8.6-18.3 9.2-37.3 16.3-57.2 21-13.8 3.3-27.8 5.7-41.9 7.6-13.1 1.7-26.101 2.6-39.301 2.8-6 .2-11.999.9-18.799.8zM0 372.3c0-7.8-.1-13.2 0-18.6.2-6.9.9-13.7 1.6-20.6.5-5.6.9-11.3 2-16.8.8-4.3 1.8-4.9 5.3-2.6 5 3.3 9.9 6.7 14.9 10 8 5.4 15.2 11.8 23.5 16.8 6.1 3.7 8.7 9.3 8.9 16.1.1 5.2.1 10.4 0 15.7-.1 12.6 1.2 25 2.6 37.5 2.4 21.2 7.2 41.9 13.7 62.1 3.2 10.1 7 20 11.5 29.5 9.6 20.4 20.6 40.1 34.3 58.1 3.6 4.7 6.9 9.8 10.8 14.3 2 2.3 2 4.8 1.1 7.7-3.9 11.8-7.7 23.6-11.5 35.4-1.6 5-2.9 10-4.3 15-1.1 4-2.4 4.6-5.7 2-6.5-5.2-12.6-10.7-18.2-16.9-10.6-11.9-20.2-24.6-28.8-38-11.2-17.3-20.9-35.4-29.3-54.2-5.4-12.1-10.2-24.3-14.2-36.9-5-15.4-8.8-31.2-11.8-47.1-1.8-9.6-3.3-19.3-4.4-29-.6-5.3-.8-10.7-1.4-16-.9-8.5-.2-17.2-.6-23.5zM704.499 202.7c-7.6-1.6-15.5.6-23.5 1.6-7.9.9-15.9 1.6-23.9 1.1-7.8-.5-12.9-5.2-17.2-11-8.6-11.8-16.9-23.7-25.6-35.4-5.9-8-12.9-15.2-20.6-21.6-3.9-3.2-7.3-6.9-11.2-10.2-11.5-9.8-23.8-18.3-36.5-26.3-8.2-5.1-16.6-9.9-25.3-14.1-19.3-9.1-39.2-16.7-59.7-22.7-1-.3-2-.8-3.1-.9-5.1-.5-6.9-3.7-8.3-8.3-4.7-16-9.9-31.9-14.9-47.8-2-6.4-1.7-6.6 4.7-5.6 23.6 4.1 46.5 10.6 69.1 18.6 15.5 5.5 30.6 11.9 45.1 19.6 16.6 8.7 32.5 18.6 47.4 29.8 16.9 12.7 32.9 26.7 47.1 42.4 17.6 19.4 33.7 40.1 47 62.8 4.6 7.8 9 15.7 13.5 23.5.6 1 1.6 2.1 1 3.4-.8 1.6-2.4.8-3.7 1-.3.1-.6.1-1.4.1zM310.199 1.6c4.9 0 6.5 1.5 6 5.9-.5 4.1-1.4 8.1-2.7 12.1-2.7 8.3-5.7 16.5-8.8 24.7-1.4 3.9-2.7 7.8-3.3 11.9-.5 3.5-2.1 5.5-5.9 6.5-24.4 6.4-48 14.9-70.2 26.9-16.3 8.8-31.7 19.1-46.5 30.4-14.2 10.9-26.8 23.4-38.9 36.5-11.7 12.6-22.4 26-31.9 40.3-3.6 5.5-8.1 7.7-14.8 6.3-4.9-1-10.1-.7-15.1-.1-5.7.7-11.3.9-16.9 0-2.6-.4-5.2-.5-7.8.2-2.4.7-4.9.5-7.3.3-3.7-.3-4.7-2-2.8-5.2 2.4-4 4.2-8.2 6.5-12.2 6.6-11.4 13.3-22.8 20.9-33.6 7.9-11.3 16.5-22.1 25.3-32.7 4.5-5.4 9.4-10.6 14.3-15.5 5.3-5.3 10.7-10.5 16.4-15.4 6.3-5.4 12.5-10.9 19.1-15.9 15.3-11.6 31.3-22 48.2-31.1 22.9-12.3 47-21.6 71.8-29.4 13.9-4.4 27.9-8 42.2-10.7.9-.2 1.8-.1 2.2-.2zM695.299 375.3c-.3-5.5-.2-9.6-.8-13.7-.9-6.3.8-12.1 5.6-16.8 6.8-6.7 14.7-12 22.5-17.4 6.5-4.6 13.1-9 19.7-13.6 2.6-1.8 3.7-1.5 4.4 1.6.8 3.9 1.7 7.8 1.9 11.7.2 6.1.6 12.2 1.9 18.2.1.3.1.6.1.9-.3 13 1.9 26.1.8 39.1-.8 9.7-1.4 19.5-2.4 29.2-2.1 18.9-5.5 37.5-10.3 55.8-4.9 18.9-11.4 37.1-19.3 55-9.4 21.3-20.8 41.3-34.2 60.4-7.7 11.1-16 21.7-25.6 31.2-5.3 5.3-10.6 10.7-16 15.9-1.2 1.1-2.1 3.3-3.9 2.8-2.2-.6-2.2-3-2.6-4.9-1.7-7.3-3.9-14.5-6.6-21.5-2.8-7.5-5-15.1-7.9-22.6-2-5.2-1.2-9.7 2.2-14.2 15.2-20.5 28.8-41.9 39.8-65 7.7-16.4 14-33.3 18.9-50.8 3.4-12.1 5.9-24.4 7.9-36.7 1.1-6.6 1.7-13.3 2.3-20 .6-8.6 1.2-17.3 1.6-24.6z"/></g><defs><clipPath id="clip0"><path fill="#fff" d="M0 0h751.8v746.9H0z"/></clipPath></defs></svg>