<svg width="598" height="648" viewBox="0 0 598 648" fill="none" xmlns="http://www.w3.org/2000/svg">
<g clip-path="url(#clip0)">
<path d="M402.2 584.5V29.1V0.199951C381.5 0.199951 360.8 0.199951 340.1 0.199951C338.4 0.199951 336.6 0.199951 334.9 0.199951C330 0.199951 325.1 0.199951 320.1 0.199951C313.1 0.199951 306.1 0.199951 299.1 0.199951C299 0.199951 298.9 0.199951 298.9 0.199951C298.8 0.199951 298.7 0.199951 298.7 0.199951C291.7 0.199951 284.7 0.199951 277.7 0.199951C272.8 0.199951 267.9 0.199951 262.9 0.199951C261.2 0.199951 259.4 0.199951 257.7 0.199951C237 0.199951 216.3 0.199951 195.6 0.199951V619.8C220.1 629 245.4 636.3 271.2 642.3C280.3 644.4 289.5 647.9 299 647.6C308.5 647.9 317.6 644.4 326.8 642.3C352.6 636.3 377.9 629 402.4 619.8L402.2 584.5Z" fill="#E4E4D6"/>
<path d="M21 0C17.5 0 14 0 10.5 0C8.2 0 6.3 0.1 4.9 0.5C1.2 1.5 0 4.1 0 10.3C0.3 143.8 0.2 277.4 0.2 411C0.2 432.3 4.5 452.6 12.9 472.1C31.2 514.7 62.9 545.7 100.4 571.2C127.4 589.6 156 604.2 185.8 616.1C189 617.4 192.3 618.6 195.6 619.9V0.2C137.4 0.2 79.2 0.2 21 0Z" fill="#263D75"/>
<path d="M597.8 10.3C597.8 4.19998 596.6 1.59998 592.9 0.599976C591.4 0.199976 589.6 0.0999756 587.2 0.0999756C583.7 0.0999756 580.2 0.0999756 576.7 0.0999756C518.5 0.299976 460.3 0.299976 402.1 0.299976V29.2V584.6V619.9C405.4 618.7 408.6 617.4 411.8 616.1C441.6 604.3 470.2 589.6 497.2 571.2C534.8 545.7 566.4 514.7 584.7 472.1C593.1 452.6 597.4 432.3 597.4 411C597.5 277.4 597.5 143.8 597.8 10.3Z" fill="#DF2328"/>
</g>
<defs>
<clipPath id="clip0">
<rect width="597.8" height="647.6" fill="white"/>
</clipPath>
</defs>
</svg>
