<svg width="513" height="513" viewBox="0 0 513 513" fill="none" xmlns="http://www.w3.org/2000/svg"><path d="M435.04 512.005H77.15c-42.49 0-77.06-34.57-77.06-77.06V77.065C.1 34.575 34.67.005 77.16.005h357.89c42.49 0 77.06 34.57 77.06 77.06v357.89c-.01 42.48-34.58 77.05-77.07 77.05zM77.16 34.805c-23.3 0-42.26 18.96-42.26 42.26v357.89c0 23.3 18.96 42.26 42.26 42.26h357.89c23.3 0 42.26-18.96 42.26-42.26V77.065c0-23.3-18.96-42.26-42.26-42.26H77.16z" fill="#fff"></path><path d="M221.29 205.405l-60.1-8.45c.62-31.77 9.39-57.48 26.3-77.13 16.9-19.64 40.93-29.46 72.08-29.46 32.87 0 56.82 9 71.84 27 15.03 18 22.54 38.97 22.54 62.92 0 18.63-3.6 34.24-10.8 46.84-7.2 12.6-19.33 26.49-36.39 41.68-12.05 10.8-19.37 18.98-21.95 24.53-2.58 5.56-3.87 15.77-3.87 30.64h-56.35v-10.57c0-19.56 1.06-33.61 3.17-42.14 2.11-8.53 10.21-19.68 24.3-33.46 11.74-11.42 19.84-21.25 24.3-29.47 4.46-8.22 6.69-18.04 6.69-29.46 0-10.48-2.74-18.31-8.22-23.48-5.48-5.17-11.9-7.75-19.25-7.75-22.71 0-34.13 19.25-34.29 57.76zm0 142.04h62.92v68.32h-62.92v-68.32z" fill="#fff"></path></svg>