<svg width="513" height="513" viewBox="0 0 513 513" fill="none" xmlns="http://www.w3.org/2000/svg"><path d="M435.02 512.005H77.13c-42.49 0-77.06-34.57-77.06-77.06V77.065C.08 34.575 34.65.005 77.14.005h357.89c42.49 0 77.06 34.57 77.06 77.06v357.89c-.01 42.48-34.58 77.05-77.07 77.05zM77.14 34.805c-23.3 0-42.26 18.96-42.26 42.26v357.89c0 23.3 18.96 42.26 42.26 42.26h357.89c23.3 0 42.26-18.96 42.26-42.26V77.065c0-23.3-18.96-42.26-42.26-42.26H77.14z" fill="#fff"></path><path d="M284.49 96.245h-56.82v200.97h56.82V96.245zM284.49 358.945h-56.82v56.82h56.82v-56.82z" fill="#fff"></path></svg>