<svg width="191" height="121" viewBox="0 0 191 121" fill="none" xmlns="http://www.w3.org/2000/svg"><path d="M41.631 105.787h-.939v.532h.94v-.532zM42.459 111.616l.111.244a.446.446 0 0 0 .403-.244.549.549 0 0 0 .067-.288h-.693l.112.288zM39.977 107.871h-.224c0 .266-.156.62-.47 1.041v.577h.224c.38-.377.694-.577.94-.577v-.531c-.023-.333-.18-.51-.47-.51zM32.039 107.871h-.47v.82h.47v-.82zM37.651 110.774v-.532h-.47c0 .355.157.532.47.532zM35.08 109.732h-.224c0 .577-.09 1.02-.223 1.33v.288h.223v-.022c0-.532.157-.798.47-.798h.223v.532h.47v-.532c-.246 0-.56-.266-.94-.798zM35.773 107.117v-.288c-.313.199-.537.288-.693.288v.754c.223 0 .47-.266.693-.754zM31.57 111.062h.223c.313 0 .47-.177.47-.532h-.224c-.313.045-.47.222-.47.532zM157.303 109.311h-.224v.532h.224v-.532zM158.488 109.311h.469v-.576c-.313.089-.469.266-.469.576zM160.366 109.311v.532h.47v-1.108c-.313.089-.47.266-.47.576zM124.544 111.106c.157-.265.224-.62.224-1.041h-.47v.532c0 1.352-.223 2.061-.693 2.15l-.223-.532c.313 0 .469-.178.469-.532v-.82h-.223c-1.566.576-2.348 1.019-2.348 1.329v.532l1.632-.288c.157.355.224.621.224.82.782 0 1.162-.266 1.162-.82h.224l.47.288.223-.532v-.531c-.425.022-.671-.156-.671-.555zM121.034 102.707h-.224v.532h.224v-.532zM130.403 110.885h-.224v.532h.224v-.532zM120.81 110.353h-.469v.222h.469v-.222zM130.403 111.927h-.47v.531h.47v-.531zM121.504 110.885v-.288c-.314.066-.47.244-.47.532v.288c.313-.022.47-.178.47-.532zM157.996 105.078h-.224v.532h.224v-.532zM122.912 103.46h-.223v.532h.223v-.532zM121.056 104.28c0 .355.157.532.47.532h.223v-1.064c-.313.155-.536.222-.693.222v.31zM160.12 101.089h-.224v.532h.224v-.532zM160.12 103.46c0-.266.157-.62.47-1.041v-.532l-1.163.532c.156.31.223.665.223 1.041h.47zM159.181 103.46v-1.042h-.224c-.469 1.286-.693 1.973-.693 2.084.38-.687.693-1.042.917-1.042zM131.32 103.239h-.224v.532h.224v-.532zM132.281 113.256h.224v-.532h-.693c0 .355.156.532.469.532zM124.79 103.46v-.753h-.469v.221c0 .355.156.532.469.532zM122.912 102.707h-.223v.532h.223v-.532z" fill="#EBEBDC"></path><path d="M44.538 108.802h-3.6l.671-1.175h-.224v-.532h.224v.488l1.923-3.369h1.856v-4.278h-5.255l-4.136 8.821v-8.82h-7.044v4.277h1.431v11.791h-1.431v4.277h7.044v-7.801h2.996v7.801h6.954v-4.277h-1.431v-7.203h.022zm-9.458-1.685c.156 0 .38-.089.693-.288v.288c-.224.51-.47.754-.693.754v-.754zm-3.51.754h.469v.82h-.47v-.82zm.223 3.191h-.224c0-.31.157-.487.47-.532h.223c0 .355-.156.532-.47.532zm4.226 0h-.47v-.532h-.223c-.313 0-.47.266-.47.798v.022h-.223v-.288c.156-.31.223-.753.223-1.33h.224c.38.532.693.82.939.82v.51zm1.632-.288c-.313 0-.47-.177-.47-.532h.47v.532zm2.795-1.862c-.223 0-.536.2-.939.577h-.223v-.577c.313-.421.47-.775.47-1.041h.223c.268 0 .425.177.47.532v.509zm.246-3.125h.94v.532h-.94v-.532zm2.259 5.829c-.067.155-.202.244-.403.244l-.112-.244-.111-.266h.693c0 .111-.023.2-.067.266zM71.483 99.958h-8.676l-1.454 7.381h.157v.288h-.224l-1.654 8.4H58.2v4.277h6.708l.626-4.942h3.175l.693 4.942h6.641v-4.277h-1.43l-3.131-16.069zm-5.3 3.147h.224c.268 0 .425.178.47.532v.289h-.224c-.313 0-.47-.178-.47-.532v-.289zm-1.386 4.012h.224v.754h-.224v-.754zm-1.655-5.851v.532h-.447c0-.333.134-.51.447-.532zm-3.264 17.731h-.224v-.532h.224v.532zm1.878-2.904h-.693v-.288h.693v.288zm.939-13.209v-.82h.47v.221c-.023.399-.18.599-.47.599zm.693.51h-.223v-.532h.223v.532zm.94-1.84h-.47v-.288h.47v.288zm.469 8.178v-.82l.47.288c0 .355-.157.532-.47.532zm.94.51h-.224v-.754h.223v.754zm.178 1.574l1.207-8.09 1.275 8.09h-2.482zm4.025-7.669c-.224.532-.47.82-.693.82v-.532c0-.31.156-.487.47-.532h.223v.244zm1.878 13.808h-.47v-.576h.47v.576zm0-12.456h-.47v-.753c.269 0 .425.177.47.531v.222zm1.386 12.456c-.268-.2-.58-.288-.939-.288v-.288c0-.355.157-.532.47-.532h.224c.223 0 .47.266.693.82l-.448.288zM104.375 114.387c0-1.308-.179-2.261-.537-2.882-.357-.62-.983-1.063-1.9-1.351l-.313-.089.313-.133c.894-.377 1.52-.842 1.878-1.396.358-.554.537-1.33.537-2.305v-2.039c0-1.441-.38-2.527-1.118-3.214-.738-.687-1.901-1.042-3.444-1.042H88.566v4.278h1.431v11.791h-1.43v4.277h6.998v-8.267h3.22v5.829c0 .953.134 1.596.402 1.928.269.333.783.51 1.566.51H105.761v-4.277h-1.431v-1.618h.045zm-5.568-6.117h-3.22v-4.056h3.22v4.056zM132.035 107.693l.47.82v.222l-.939-.222v-.288l.223-.532c-.156 0-.223-.088-.223-.221l-2.818.221v.532l.47-.221v.532h-.224l-.402-.244v2.859h.156v.82h-.156v4.1h-3.176V104.28a.44.44 0 0 1-.179.022h-.223l.223-1.041h.47v.532c0 .244-.089.421-.246.487h3.131v.311l.156-.266.47.221-.626 1.441v.399c.111-.022.156-.089.156-.222.313 0 .47.266.47.82h.223c0-.465.313-.997.939-1.618l-.469-.82.223-.532h-.939v-.753l1.879 1.041c.38 0 .626-.354.693-1.041h.469v.753h.224c.47-.221.693-.487.693-.753.268 0 .425.177.47.532l.357-.311c-.156-.975-.491-1.728-1.006-2.282-.76-.798-1.923-1.197-3.533-1.197h-11.046v4.277h1.431v11.791h-1.431v4.278h11.046c1.588 0 2.773-.399 3.533-1.197.761-.798 1.118-2.061 1.118-3.768v-2.97c-.223.2-.603.421-1.162.621 0-.155-.09-.222-.224-.222l.939-2.15v-.532l-.939 1.042v-.532c.425-1.396.738-2.083.939-2.083 0 .532.157.82.47.82v-4.233c-.604 1.418-1.297 2.282-2.08 2.548zm-.939-4.454h.224v.532h-.224v-.532zm-6.775-.532h.469v.753c-.313 0-.469-.177-.469-.532v-.221zm-1.633 0h.224v.532h-.224v-.532zm0 .753h.224v.532h-.224v-.532zm-1.878 7.137h-.469v-.222h.469v.222zm0-7.89h.224v.532h-.224v-.532zm.939 1.041v1.042h-.223c-.313 0-.47-.177-.47-.532v-.288c.134.022.38-.066.693-.222zm-.693 7.359c0-.266.157-.444.47-.532v.288c0 .354-.157.532-.47.532v-.288zm4.204 1.108l-.224.532-.469-.288h-.224c0 .531-.38.82-1.163.82 0-.2-.089-.466-.223-.82l-1.633.288v-.532c0-.311.783-.754 2.348-1.33h.224v.82c0 .355-.157.532-.47.532l.224.532c.469-.089.693-.798.693-2.15v-.532h.47c0 .421-.09.776-.224 1.042 0 .377.224.576.693.576v.51h-.022zm5.143.244h-.47v-.532h.47v.532zm0-1.064h-.224v-.532h.224v.532zm2.102 1.861h-.224c-.313 0-.47-.177-.47-.532h.694v.532zM161.283 108.935c-.76-.665-1.945-.998-3.578-.998h-4.025v-3.701h3.175v1.662h2.796v-.066c0-.311.156-.488.469-.532h.47v.576h1.207v-.798h-.738v-1.108l.47.288h.268v-4.322h-8.989c-1.722 0-2.907.355-3.577 1.064-.425.443-.716 1.086-.873 1.95.381.311.649.754.761 1.308l-.47.222c0 .199.067.288.224.288-.112.864-.336 1.307-.671 1.33v1.396a.66.66 0 0 1 .201-.044h.224v.532h-.425c.022.332.045.642.112.93a.998.998 0 0 0 .089-.399h.47c0 .156.067.422.223.82 0 .333-.134.621-.402.887.156.31.335.554.537.776.693.687 1.878 1.041 3.51 1.041h4.07v4.012h-3.108v-1.973h-5.277v6.25h9.212c1.655 0 2.862-.354 3.645-1.041.76-.687 1.163-1.773 1.163-3.236v-4.012c-.023-1.418-.403-2.46-1.163-3.102zm-1.386-7.846h.223v.532h-.223v-.532zm.693.798v.532c-.313.421-.47.775-.47 1.041h-.469c0-.377-.09-.731-.224-1.041l1.163-.532zm-1.633.532h.224v1.041c-.224 0-.537.355-.939 1.042 0-.111.246-.82.715-2.083zm-1.185 2.659h.224v.532h-.224v-.532zm-.447 4.765h-.224v-.532h.224v.532zm1.632-.532h-.469c0-.31.156-.509.469-.576v.576zm1.856.532h-.469v-.532c0-.31.156-.509.469-.576v1.108zM21.015 43.287c0-.31.38-.465 1.163-.465 0-.222-.157-.377-.47-.4 0-.265.157-.42.47-.465.693.576 1.252.864 1.632.864v.222h-.223c-.224 0-.537-.133-.94-.399v.4c.202.11.38.199.56.287h2.258c0-.465-.09-.775-.224-.93h.47c0 .288.09.598.268.93h22.584l-.223-1.219h-.604v-.177c.134 0 .313-.044.559-.155L45.79 27.684H.98C2.3 36.15 6.324 42.866 21.172 43.31c-.045-.022-.112-.022-.157-.022zm.94-3.302h-.224v-.4h.223v.4zm1.408 2.415l-.47-.221c.157-.222.224-.532.224-.931h.47c0 .155-.09.222-.224.222 0 .31.156.465.47.465-.023.31-.18.465-.47.465zm16.614-4.233c-.269 0-.425-.155-.47-.465v-.177h.47l.47.177c0 .31-.157.465-.47.465zm1.163-4.632v-.399h.47c0 .266-.157.4-.47.4zm.715-1.285h-.693v-.466h.224c.313.022.469.178.469.466zm-.47-1.33v-.466h.224v.466h-.224zm6.306 11.901h.224v.4h-.224v-.4zm-1.163-3.08h.224v.399h-.224v-.4zm-1.162-2.194h.47v.177h-.47v-.177zm-.716-.887h-.47v-.221h.47v.221zm-.917-4.166h.47v.398h-.47v-.399zm-.715-1.796v.466c-.269 0-.425-.155-.47-.466h.47zm-.47 3.125h.47v.643h-.47v-.643zm0 4.344h.224v.4h-.224v-.4zm-.223-3.302h-.47v-.177h.47v.177zm-1.633-6.605c.224 0 .537-.133.94-.399h.223c0 .2.067.421.224.687v.4c-.47-.222-.694-.466-.694-.688-.156 0-.223.089-.223.288h-.47v-.288zm0 8.178c-.47-.221-.693-.465-.693-.687.157 0 .38-.066.693-.221v.908zm-.715-3.945h.47v.4c-.269 0-.425-.134-.47-.4zm-2.326-.864c.47 0 .693-.443.693-1.33.157 0 .224.067.224.178.157 0 .38-.067.693-.178.157.421.537.643 1.163.643 0 .2-.537.643-1.632 1.33v.643h.47v.221l-.224 1.108c-.269 0-.425-.133-.47-.399h.47v-.288l-.694-1.285.224-.466c-.157 0-.224-.066-.224-.177-.268 0-.424.133-.47.399l.224.465c-.156 0-.223.067-.223.178l-.693-.4v-.465l-.224-.399c.134-.022.38.067.693.222zM29.2 33.136h.224v.466h-.224v-.466zm-.693 10.151h-.224c-.268-.155-.581-.222-.939-.222v-.221h.47c.313.155.536.221.693.221v.222zm-2.348-5.053c.156 0 .223.066.223.177l.694-.399h.223c0 .222.157.599.47 1.108-.313.155-.537.222-.693.222v.221c.223.422.47.643.693.643 0 .155-.09.222-.224.222 0 .266.224.399.694.399l-.224.399c-1.252.465-1.878.776-1.878.93l-1.163-.686.939-1.508-.47-.221c.492-.62.716-1.13.716-1.507zm-.94 2.371h-.469v-.177h.47v.177zm-.938-1.728h.693v.221h-.693v-.221zm.246 2.371c-.157 0-.224.177-.224.532h-.224c0-.51-.089-.887-.223-1.153l-.47.222h-.223v-.864c.648 0 1.118.42 1.364 1.263zm-1.41-2.615h-.692v-.222h.693v.222zm-.223-.865c-.268 0-.425-.133-.47-.399h.47v.4zm-.715-5.917l.223.465c-.514.266-.983.4-1.408.4l-.224-.4c.514-.31.984-.465 1.409-.465zm-3.041 10.793h-.47c.358-.731.984-1.418 1.878-2.039 0 .222.38.532 1.163.865-.223.465-.47.687-.693.687l-.47-.222c0 .089-.47.31-1.408.71zM27.88 48.274c0 .731-.56 1.174-1.633 1.33 0-.156-.156-.222-.47-.222.314-.443.515-.798.627-1.108h-1.14l-.18 1.108c0 .31.314.465.94.465v.643l-.224 1.108h-.47c0-.155.068-.377.224-.642l-.223-.466h.223c0-.222-.156-.377-.47-.399-.268 0-.424.133-.47.399v.465l.224.4h-.469c0-.156-.09-.377-.224-.643l.224-.4c-.313-.664-.47-1.13-.47-1.396h.47v-.398h-.47v-.222h-3.04c0 .355.402.554 1.162.643v.221c-.358 0-.67.089-.939.222a3.038 3.038 0 0 1-.649-1.108H15c1.431 8.776 16.837 15.67 33.854 15.67h3.399l-2.795-15.67H27.88zm-5.39 2.66v-.643h.224c0 .11.067.332.224.642h-.447zm1.41 1.728h-.224c0-.222.156-.377.47-.465h.223c0 .31-.157.465-.47.465zm3.51-1.33h-.224v-.642h.224v.642zm3.734-1.972h-.693c0-.31-.157-.466-.47-.466 0-.221.157-.377.47-.399.47.222.693.444.693.643v.222zm12.075 3.657h-.827v-.222h.827v.222zm.224-1.862c-.157 0-.224-.067-.224-.222-.425 0-.783.089-1.051.222h-.29v-.222c.312 0 .76-.221 1.34-.687.359 0 .538.155.538.466l-.313.443zm1.878-1.374h.827v.465c-.358-.155-.626-.221-.827-.221v-.244zm1.342 4.854h-.537v-.222h.537v.222zm0-2.084h-.828v-.465c.358.155.626.221.828.221v.244zM189.636 33.025c.648-1.662 1.073-3.457 1.364-5.34h-44.766l-2.795 15.668h25.715c12.566 0 17.955-4.144 20.393-10.084h-.336v-.221h.425v-.023zm-31.797-1.285h.537v.687c-.313 0-.492-.155-.537-.465v-.222zm-2.392 2.083h.536v.222h-.536v-.222zm.514 7.89v.222h-.537v-.222h.537zm-1.051-6.959h.537v.222h-.537v-.222zm-4.271-6.25c.201 0 .47-.066.827-.222.269.466.537.688.761.688l.536-.222c.269 1.706.828 2.549 1.633 2.549v.221h-.291l-1.342-.465-.536.221c0-.62-.246-.93-.761-.93 0-.155.068-.222.224-.222 0-.377-.358-.62-1.051-.687v-.93zm2.415 3.923h-.537v-.222c.358 0 .537-.155.537-.465h.537l.827.465c0 .31-.179.466-.537.466h-.536v-.466c-.201 0-.291.067-.291.222zm-7.737 10.439h-.29c-.515-.222-.761-.466-.761-.687v-.222h.224c.537.222.827.466.827.687v.222zm.246-9.974h1.118v.466h-1.118v-.466zm1.342 6.273h-1.051v-.688h.224c.38.156.67.222.827.222v.466zm1.342 0h-.291c-.358 0-.537-.155-.537-.466l.537-.221.291.465v.222zm.827-2.328v-.465h.537c-.023.31-.202.465-.537.465zm.76-1.152h.291l1.051.222v.221h-.224l-1.118-.221v-.222zm5.076 6.715c-.537.222-.827.466-.827.688-2.303-.267-3.444-.577-3.444-.931.582 0 1.029-.067 1.342-.222 2.84.11 4.271.51 4.271 1.152-.895-.088-1.342-.332-1.342-.687zm2.929-9.264h.537v.222h-.537v-.222zm.828 9.043h-.291v-.687h.291v.687zm0-1.662v.044h-.515v-.222c0-.266.179-.42.537-.465v.643h-.022zm0-9.708v.687h-.291l-.537-1.862c.201 0 .291-.066.291-.221l.537.221c0 .156-.09.222-.291.222l.291.953zm22.763-2.194h.536c0 .31-.179.465-.536.465h-.537c.022-.266.201-.42.537-.465zm-1.051 3.701h-.515v-.222h.537v.222h-.022zm.29 1.618v-.221c.537 0 .984-.067 1.297-.222l.291.465h-1.588v-.022zm3.757-1.84l-1.342.222v-.465h1.342v.243zm1.275-.709h-2.393c0-.266.179-.42.537-.465l.581.221.224-.465c.313.155.76.222 1.341.222l-.29.487zm.313-1.152h-.537c0-.266.179-.421.537-.466v.466zm.223 0v-.466c.38 0 .582.155.582.466h-.582zm1.878 3.258h-.223v-.687h.223l.537.221c-.022.31-.201.466-.537.466zm.291-1.175c-.313 0-.492-.155-.537-.465h.224c.358 0 .537.155.537.465h-.224zM145.787 48.85c-.358 1.241-.693 1.862-1.051 1.862h-.224c0-.355-.089-.665-.29-.931h.29c-.335-.333-.67-.82-1.028-1.507h-.962l-2.795 15.67h3.399c17.016 0 32.423-6.894 33.854-15.67h-32.423c.38.377.783.576 1.23.576zm-2.929 8.577h-.537v-.221h.537v.221zm0-4.41h-.537v-.466h.514v.466h.023zm1.341 1.152c.358 0 .537.155.537.466l1.342-.222h.29v1.862h-1.118l.291-.466v-.687h-1.342c-.313 0-.492-.155-.536-.465 0-.288.179-.443.536-.488zm-.536 2.571c.425.31.782.465 1.051.465v.466c-.38 0-.738.089-1.051.222l-.537-1.153h.537zm0 1.618v-.222h1.051c0 .222.357.532 1.051.931-.112-.022-.805-.244-2.102-.709zm2.705.93h.537v.223h-.537v-.222zm.761 2.771h-.537v-.465h.537v.465zm1.856-.221c0 .31-.179.465-.537.465v-.687h.537v.222zm1.05-3.48h.582v.465c-.291 0-.492-.155-.582-.465zm1.118 1.862h-.536v-.222h.536v.222zm0-3.258h-.536c-.313 0-.514-.155-.582-.466h1.118v.466zm0-1.618h-.29l-.537-.222c.358-.377.537-.687.537-.93h.29v1.152zm2.639-6.494h.291v1.152l-1.342.222h-.291c.895-.576 1.342-1.042 1.342-1.374zm-2.929 1.618v-.466h1.051v.222c0 .31-.179.466-.537.466h-1.342v-.466l.582.222h.246v.022zm-1.342-1.618h.537v.687c-.313 0-.492-.155-.537-.465v-.222zm-.76 3.48c.425.31.783.465 1.051.465v.222h-.291c-.358-.156-.604-.222-.76-.222v-.465zm-.537 1.396h.537v.221h-.537v-.221zm0 3.48h.537v.221h-.537v-.221zm-.805.443h-.29c-.313 0-.492-.155-.537-.466v-.465h1.051l-.224.93zm-1.051-5.563l.224.465-.537.222h-.29v-.222c.089-.31.29-.465.603-.465zM126.222 85.663a4.018 4.018 0 0 0 3.041-.665 4.022 4.022 0 0 0 1.677-2.593l11.649-65.426a4.01 4.01 0 0 0-.67-3.014 4.06 4.06 0 0 0-2.617-1.662L122.8 9.422v-.71c0-2.216-1.811-4.033-4.069-4.033h-16.458l-.111-.665C101.781 1.82 99.657.357 97.466.756L74.994 4.679H72.51c-.961 0-1.833.332-2.526.886L51.94 8.712c-1.074.178-1.99.776-2.616 1.663a3.915 3.915 0 0 0-.671 3.014l2.549 14.317 2.795 15.67.894 5.053 2.795 15.67 1.745 9.773h.223l.067.466h-.201l.805 4.521a4.06 4.06 0 0 0 4.718 3.258l12.32-2.15h.068l3.69-.643v-.044h.223l.268-.044h7.469l37.141 6.427zM65.2 76.798L53.952 13.566l14.49-2.527v64.097c0 .376.045.731.156 1.086l-3.398.576zm-5.39-4.433l-.469.067.179-1.153.224-.066.067 1.152zm-1.699-12.411h-.47l-.066-.931c.268.155.67.221 1.23.177.044.155-.045.222-.224.222.045.31.223.465.536.465-.156.222-.223.687-.178 1.397-.425-.31-.76-.444-.984-.4l.223-.465-.067-.465zm-2.236-17.576h.224l.067.931h-.224l-.067-.93zm2.17 16.401c-.27 0-.448-.155-.538-.465l-.066-.687 1.05.177v.465c.068.31-.089.488-.447.51zm.178-1.44c-.268.044-.648-.488-1.118-1.574.224-.465.492-.687.76-.687l.224-.067.358 1.618c.022.178-.067.4-.224.71zm-.402-2.483c-.313-.155-.56-.221-.76-.221v-.466l.178-1.618h.47c.044.62.223 1.13.581 1.574-.313 0-.47.266-.47.731zm-.112-2.57l-1.051-.4c.156-.31.223-.642.223-.975h.47l.358 1.153v.221zm-.828-1.619l-.067-.93h.47l.067.93h-.47zm-.111-1.152v-.465h.223l.067.465h-.29zm.111-2.793l-.223.067-.067-.466.29-.066v.465zm-.58-1.551l-.068-1.153h.224c0 .155.089.377.29.643.023.288-.134.466-.447.51zm2.973 17.509c0 .31-.157.465-.47.465l-.067-.465h.537zM75.441 9.82h13.237L77.632 71.879c.09.066.157.2.157.376h-.202l-.134.798a3.613 3.613 0 0 0-.045.975h-3.756V72.41h-.067v-.642h.067V9.82h1.789zm-.85-1.795v-.221c.313 0 .47.155.47.465v.222c-.269 0-.425-.155-.47-.466zm44.296 71.122l-14.668-2.57-3.98-.688-7.469-1.307-3.264-.577-4.204-.731-2.594-.443L93.91 9.798l.044-.221 1.208.221 2.817.488 2.706.465 2.705.466 14.155 2.482 2.593.443 2.594.444 14.49 2.526-11.247 63.232-7.089-1.197zm-48.5-54.3c.29.133.492.222.649.222h.044v.465H70.387v-.687zm-.47-7.38c0-.266.157-.421.47-.466v.688l-.47-.222zm.694 3.945v-.465h.223v.465h-.223zm.246 5.518H71.08v.466H70.856v-.466zm.223-15.248l.224-.864h.224v.222c.022.42-.135.642-.448.642zm1.41 15.005c0 .465.156.687.469.687l-.224.93h-.47c0-.154-.089-.376-.223-.686l.224-.931h.223zm-.247-15.182v-.466h.224v.466h-.224zm.94 4.122v.222h-.47v-.222h.47zm-.47-3.723v-.4c.313 0 .47.134.47.4h-.47zm.38 54.123v.221c-.47-.222-.693-.443-.693-.643v-.221h.47c0 .177.066.376.223.642zm3.98 8.599v-.466h.224v.466h-.224zm.47-.931v-.399h.693v.222c-.134 0-.38.066-.693.177zm-4.45 2.903v-.465h.47v1.33c-.269 0-.425-.133-.47-.4v-.465zm4.696-.243c.089-.156.178-.289.268-.4.134-.154.29-.243.425-.243v1.042l-.29-.178-.403-.221zm-1.186.709c.157 0 .38-.089.694-.288v.687h-.224a.623.623 0 0 1-.29-.067.485.485 0 0 1-.18-.332zm28.667 3.413v-.466h.469c0 .31-.156.466-.469.466zM75.217 7.25l-1.096.2v.354h-.223v-.31l-.47.066v.465h-.47V7.65l-.469.088v.532h-.224c0-.2-.044-.355-.134-.465l-1.073.2v-.378c0-.2.157-.354.358-.354h.156v-.377c.291 0 .425.133.47.377h.179l.29-.155v.155h.582a.67.67 0 0 1 .358-.155v.155h1.766V7.25zM58.178 61.106l.067.466h-.223l-.067-.466h.223zm-.134 1.862l-.067-.466c0-.265.157-.443.47-.531l.067.465c0 .31-.157.488-.47.532zm.582 1.33h.223l.537.221c-.157.266-.224.577-.224.931h-.47l-.066-1.152zm.827 1.618v.221h-.47v-.221h.47zm-.582 3.014l-.111-1.862.223-.465.537.221-.403 2.084h-.245v.022zm.47 3.945v-.222l.47-.066.067.221-.537.067zm24.753 5.918h-.223v-.443h.223v.442z" fill="#EBEBDC"></path><path d="M122.778 41.226l-2.594-.443-2.594-.444-2.28-.376-2.035-11.835-.179-1.153-5.098 9.774-.962 1.817-1.409-.2-2.705-.442-8.833-1.485 7.156 7.27v-.178l1.163.222v-.532h.536v.288c0 .709-.179 1.174-.536 1.352l.894.908-1.23 2.372-4.986 9.552 8.631-4.277 1.028-.51 1.387-.687 1.028-.51.023.022 1.811 1.84.022.022 6.597 6.693.939.953-.939-6.405-.984-6.782.984-.487 1.207-.599 1.387-.687 2.593-1.285 5.68-2.815-5.702-.953zm-20.862 1.241c-.313-.044-.47-.2-.47-.465l.47-.288c.313 0 .469.177.469.532l-.469.221zm-.157 8.688l-.067-.465h.224l.067.465h-.224zm3.511 1.22l-.47-.223-.537.288.358 1.153v.222c-.425 0-.782-.466-1.051-1.397.157 0 .313-.221.47-.687l.469.222.224-.067.537-.221v.71zm-.179-1.663v-.222h.536v.222h-.536zm3.913-8.71v.753h-.224v-.753h.224zm-2.728-2.195v.688h-.224l-.067-.688h.291zm2.952 6.428c-.202 0-.537-.421-.984-1.286.201-.266.29-.598.29-.975h.224c.268.554.514.931.693 1.108.09.111.179.155.246.155v.466c-.045 0-.089 0-.134.022-.224.044-.335.222-.335.51zm4.069 1.396l-.469-.221v-.931h.223c0 .376.157.775.47 1.152h-.224zm2.348-.244l-1.163-.93c0-.156.067-.377.224-.688 0-.155-.157-.221-.47-.221v-.466h.47c0 .222.313.62.939 1.153v1.152zm.939 3.258h-.469v-.465h.469v.465zm.693-3.945h-.223c-.313 0-.47-.155-.47-.465l-.469.221c0-.155-.09-.376-.224-.687v-.465h.224c0 .31.38.687 1.162 1.152v.244zm1.185-4.056h1.163c.268 0 .425.156.47.466v.221c-.358 0-.671-.066-.939-.221-.313 0-.47.221-.47.687h-.47c.157-.266.246-.643.246-1.153zm.917 3.59c-.156 0-.223-.066-.223-.22l-.47.22v-.686l.224-.466c-.157 0-.224-.066-.224-.221-.156 0-.224.088-.224.221-.313 0-.469-.155-.469-.465.313 0 .782-.155 1.409-.465 0 .687.067 1.152.223 1.396-.156 0-.246.221-.246.687zm.805-1.839c-.067.067-.179.089-.335.089v-.687l.335.155.134.067c0 .177-.044.31-.134.376zm.85-.598h-.47c0-.266.157-.421.47-.466v.466zm2.325-1.153h-.223v-.465h.223v.465zm.582.244c-.045 0-.09-.022-.112-.022l.112-.222.112-.221c.268 0 .424.155.469.465v.222a1.607 1.607 0 0 0-.581-.222z" fill="#EBEBDC"></path></svg>