<svg width="513" height="512" viewBox="0 0 513 512" fill="none" xmlns="http://www.w3.org/2000/svg"><path d="M434.95 512H77.06C34.57 512 0 477.43 0 434.94V77.06C.01 34.57 34.58 0 77.07 0h357.89c42.49 0 77.06 34.57 77.06 77.06v357.89c-.01 42.48-34.58 77.05-77.07 77.05zM77.07 34.8c-23.3 0-42.26 18.96-42.26 42.26v357.89c0 23.3 18.96 42.26 42.26 42.26h357.89c23.3 0 42.26-18.96 42.26-42.26V77.06c0-23.3-18.96-42.26-42.26-42.26H77.07z" fill="#fff"></path><path d="M365.59 340.415c-.07-.02-.13-.03-.19-.05v.03c.07.01.12.01.19.02zM365.59 340.415c2.78.31 1.06.25 0 0z" fill="#fff"></path><path d="M365.59 340.415c-.07-.02-.13-.03-.19-.05v.03c.07.01.12.01.19.02zM365.59 340.415c2.78.31 1.06.25 0 0zM365.4 340.365v-.15l-.43-.06c.04.08.21.15.43.21z" fill="#fff"></path><path d="M364.96 340.155l.43.06v-.36c-.37.11-.48.21-.43.3zM365.59 340.415c2.78.31 1.06.25 0 0zM365.59 340.415c-.07-.02-.13-.03-.19-.05v.03c.07.01.12.01.19.02zM411.5 368.895c-.1.01-.2.01-.29.02h-.16l2.81.19c-.71-.31-1.49-.32-2.36-.21z" fill="#fff"></path><path d="M365.59 340.415c-.07-.02-.13-.03-.19-.05v.03c.07.01.12.01.19.02zM365.59 340.415c2.78.31 1.06.25 0 0z" fill="#fff"></path><path d="M365.59 340.415c-.07-.02-.13-.03-.19-.05v.03c.07.01.12.01.19.02zM365.59 340.415c2.78.31 1.06.25 0 0z" fill="#fff"></path><path d="M450.87 359.725c.2-.37-.01-.82-.41-.92-.29-.07-.57-.14-.84-.26-.45-.19-1.04-.44-1.21-.82-1.07-2.4-2.65-2.68-4.87-1.34a.64.64 0 0 1-.88-.24c-.38-.7-.74-1.36-1.09-2.01a.636.636 0 0 1 .27-.87l2.29-1.16a.64.64 0 0 0 .29-.84c-.11-.24-.27-.49-.49-.59-1.65-.81-2.95-.53-3.61 1-.16.36-.58.51-.91.29-1.04-.69-2.04-1.35-3.02-2a.63.63 0 0 1-.23-.77c1.32-3.14 1.14-3.15-2.64-4-5.22-1.18-10.42-2.45-15.65-3.61-2.84-.63-4.74-2.08-5.28-5.09-.29-1.63-.83-3.21-1.18-4.83-.4-1.86-1.71-2.28-3.24-1.87-1.64.44-1 1.73-.66 2.79.61 1.86 1.45 3.67 1.84 5.58.79 3.93 3.11 5.99 7.01 6.58 2.01.31 3.98.86 6.03 1.35.32.08.53.39.49.68l-.22 1.44c-.04.3-.3.53-.61.54-.2.01-.36.01-.53-.02l-26.21-4.11-29.92-4.41v.14c.06.02.12.03.19.05 1.06.25 2.78.32 0 0-.06-.01-.12-.01-.19-.02v-.03c-.22-.06-.39-.13-.43-.21v-.02l-7.16-1.09c-1.52-.19-2.96-.37-4.39-.57-5.87-.82-5.95-.81-6.59-6.79-1.14-10.74-4.11-20.84-10.14-29.92-5.41-8.15-12.12-14.46-22.28-16-.46-.07-1.17-.81-1.17-1.24 0-1.87.23-3.75.39-5.82-2.84.12-4.2-2.39-4.27-4.4-.07-2.09 1.65-4.24 2.66-6.53-2.13-2.5-2.13-2.5-7.07-3.15.4 1.07 1.15 2.06.92 2.69-.3.84-1.37 1.39-1.63 1.63.49 1.33.97 2.3 1.2 3.32.36 1.61-.67 2.02-2.03 2.27-.42.08-.7.91-.83 1.09-1.92-1.06-3.82-1.84-5.38-3.05-1.41-1.1-2.44-2.68-3.87-4.31-.73-.38-1.91-.99-3.12-1.62 2.02-3.23 3.72-4.52 6.8-5.35 2.62-.71 4.9-1.95 6.55-4.19.34-.47.84-.84 1.34-1.16 1.67-1.09 3.5-1.96 5.01-3.23 2.36-1.98 3.17-4.68 2.85-7.75-.11-1.08-.02-2.18-.02-3.64-7.76-.33-15.91-.67-24.07-1.01-.1-.3-.1-.3-.19-.6 6.53-5.07 13.06-10.15 19.37-15.05-1.65-2.8-4.13-2.22-6.43-2.24-3.33-.03-6.68.24-9.97-.11-3.17-.34-5.44.9-7.79 2.71-6.46 4.97-13.02 9.8-19.65 14.76-1.04-1.13-2.01-2.17-2.98-3.22-12.25-13.19-24.49-26.38-36.73-39.57-.51-.55-1.48-1.33-1.36-1.71.84-2.5-.58-4.18-1.94-5.85-.46-.56-1.26-1.16-1.92-1.18-2.08-.07-3.87-1.3-4.32-3.3-.79-3.57-1.83-4.47-5.49-4.88-.73-.08-1.63-.12-2.14-.54-1.47-1.23-3.08-1.44-4.88-1.27-.55.05-1.19-.09-1.69-.34-2.04-1-4.48-.65-5.81 1.15-1.09 1.47-1.94 3.13-2.92 4.76-.08-.08-.47-.41-.83-.77-18.09-18.37-36.2-36.73-54.24-55.15-.96-.98-1.35-2.53-2.02-3.81-.76-1.45-1.3-3.1-2.35-4.28-3.12-3.5-6.49-6.77-9.64-10.24-.56-.62-.84-1.88-.65-2.7.82-3.54.59-4.85-2.86-6.04-4.21-1.45-6.95-4.36-9.42-7.72-.47-.65-.82-1.83-.81-2.64.01-1.62-.66-2.7-2.05-3.39-2.3-1.13-4.55-2.48-6.98-3.21-2-.6-4.33-.93-6.33-.5-2.83.61-5.5 2.01-8.2 3.14-.48.2-1.08.72-1.33 1.18-2.37 4.28-5.42 5.12-5.42 10.02l1.77 3.92c1.1 1.53 1.86 2.81 2.84 3.9 1.83 2.01 3.73 3.97 5.7 5.85 4.21 4 8.43 8 12.75 11.88 3.02 2.71 6.3 5.13 9.31 7.85 1.95 1.77 3.57 3.91 5.45 5.77.7.69 1.72 1.07 2.61 1.55 1.12.6 2.55.91 3.37 1.78 20.57 21.97 41.06 44.02 61.62 66 1.71 1.82 1.11 3.42.64 4.62-1.6.21-2.74.16-3.67.59-.39.18-.67 1.67-.36 2.05 1.09 1.37.84 2.57.15 3.96-1.3 2.61-.86 4.74 1.4 6.84 3.98 3.71 7.69 7.7 11.51 11.59 4.17 4.25 8.34 8.51 12.57 12.82-.52.67-.88 1.24-1.34 1.71-8.4 8.59-15.14 18.44-21.58 28.52-.37.58-.47 1.33-.7 2.01.68.18 1.35.52 2.03.52 3.71-.02 7.41-.16 11.12-.15.83 0 2.12.18 2.42.71 1.72 3.08 2.96 6.34 1.77 10.06-1.35-.42-2.48-.87-3.65-1.12-1.25-.26-2.55-.46-3.82-.43-14.53.29-25.66 6.57-33.08 19.13-5.07 8.58-7.28 17.98-7.53 27.89-.31 12.2.73 24.22 6.17 35.36 6.4 13.09 15.6 22.71 31.24 24.05 11.22.96 20.53-2.23 27.65-11.24 4.29-5.43 6.99-11.61 9.04-18.13.89-2.85 1.65-5.73 2.56-8.91 5.34 3.39 11.32.42 16.78 2.46 2.06.77 4.59-.17 6.97 0 3.19.22 6.37-.08 9.64-1.17 3.11-1.04 6.83-.22 10.39-.22 1.51 8.38 5.67 15.71 10.37 22.79 5.94 8.93 14.11 13.79 24.98 14.71 11.51.97 20.67-2.83 27.51-11.94 2.42-3.22 4.33-6.9 6.05-10.56 1.52-3.24 2.45-6.75 3.69-10.28l66.05 4.5h.16c.1-.01.2-.01.29-.02.87-.11 1.65-.1 2.35.22.49.22.93.59 1.34 1.19.46.68 1.61 1.11 2.51 1.24 2.39.33 4.83.31 7.22.64 3.8.52 7.56 1.38 11.36 1.75 1.35.13 3.35-.28 4.07-1.2 1.36-1.77 2.12-3.79 4.06-5.39 1.13-.92 2.18-2.14 3.6-2.84 1.44-.71 2.76-1.47 2.06-2.8a.601.601 0 0 1 .01-.54l.76-1.48zm-215.88-34.16c-.99.99-1.98 2-2.99 2.97-.63.61-1.23 1.3-1.97 1.7-.4.21-1.48.02-1.58-.24-.55-1.46-3.29-13.66-4.33-15.05 2.59-.16 15.27 3.02 17.7 2.87.14.19-6.97 7.56-6.83 7.75zm47.53-67.56l-3.35-2.7c-.01-.3-.01-.6-.02-.9 2.71-.48 5.41-.95 8.12-1.43.09.18.18.35.27.53-1.62 1.45-3.24 2.9-5.02 4.5zm37.02 106.61c-5.26 0-10.77-10.04-10.77-20.09s4.26-18.2 9.52-18.2 10.77 10.04 10.77 20.09-4.26 18.2-9.52 18.2zm105.85-15.49c-.23.25-.61.28-.87.06l-.01-.01a.618.618 0 0 1-.22-.57c.06-.41.12-.85.2-1.44.07-.48.62-.71 1.01-.42.56.43 1.02.76.96.91-.21.55-.65 1.01-1.07 1.47z" fill="#fff"></path></svg>