<svg width="765" height="315" viewBox="0 0 765 315" fill="none" xmlns="http://www.w3.org/2000/svg"><path d="M209.39 129.16V46.81L.36 45.77c1.25 9.9 3.09 19.35 5.92 28.09l.4 1.22c10.55 31.31 34.23 53.19 89.54 53.48l113.17.6zM209.39 165.73l-153.86-1.4c6.1 46.13 73.85 82.68 148.74 83.07l5.12.08v-81.75zM555.17 134.78V52.43l209.03-1.04c-1.25 9.9-3.09 19.35-5.92 28.09l-.4 1.22c-10.55 31.31-34.23 53.19-89.54 53.48l-113.17.6zM555.17 171.34l153.86-1.4c-6.1 46.13-73.85 82.68-148.74 83.07l-5.12.08v-81.75zM490.9.15H273.67c-13 0-23.63 10.63-23.63 23.63v267.34c0 13 10.63 23.63 23.63 23.63H490.9c13 0 23.63-10.63 23.63-23.63V23.78c0-13-10.64-23.63-23.63-23.63zM440.3 241.5c-19.71-13.63-38.62-28.08-58.02-42.02-19.46 13.88-38.35 28.34-58.02 42.02 7.09-22.8 14.73-45.03 21.96-67.68-18.48-15-39.16-27.8-57.65-42.79h71.4a2763.18 2763.18 0 0 0 21.94-68.05c8.16 21.98 14.97 45.29 22.32 68.05h71.79c-18.62 14.73-38.76 27.96-57.65 42.42 6.91 23.07 14.82 45.16 21.93 68.05z" fill="#B47732"></path></svg>