<svg width="773" height="774" viewBox="0 0 773 774" fill="none" xmlns="http://www.w3.org/2000/svg">
<g clip-path="url(#clip0)">
<path d="M578.3 289.9H482.4V194.1V0.800049H289.9V194.1V289.9H194.1H0.400391V483.2H194.1H289.9V579.1V772.4H482.4V579.1V483.2H578.3H772V289.9H578.3Z" fill="black"/>
<path d="M290 0H194.1V0.8H290V0Z" fill="#E3E4D5"/>
<path d="M0.4 194.1H0V290H0.4V194.1Z" fill="#E3E4D5"/>
<path d="M289.9 289.9V194.1V0.800049H194.1V194.1H0.400391V289.9H194.1H289.9Z" fill="#E3E4D5"/>
<path d="M772.4 194.1H772V290H772.4V194.1Z" fill="#E3E4D5"/>
<path d="M578.3 0H482.4V0.8H578.3V0Z" fill="#E3E4D5"/>
<path d="M482.4 289.9H578.3H772V194.1H578.3V0.800049H482.4V194.1V289.9Z" fill="#E3E4D5"/>
<path d="M578.3 772.4H482.4V773.2H578.3V772.4Z" fill="#E3E4D5"/>
<path d="M772.4 483.2H772V579.1H772.4V483.2Z" fill="#E3E4D5"/>
<path d="M482.4 483.2V579.1V772.4H578.3V579.1H772V483.2H578.3H482.4Z" fill="#E3E4D5"/>
<path d="M290 772.4H194.1V773.2H290V772.4Z" fill="#E3E4D5"/>
<path d="M0.4 483.2H0V579.1H0.4V483.2Z" fill="#E3E4D5"/>
<path d="M289.9 483.2H194.1H0.400391V579.1H194.1V772.4H289.9V579.1V483.2Z" fill="#E3E4D5"/>
<path d="M174.6 0V174.7H0V194.1H174.6H194.1V174.7V0H174.6Z" fill="black"/>
<path d="M772.3 174.7H597.7V0H578.3V174.7V194.1H597.7H772.3V174.7Z" fill="black"/>
<path d="M597.7 773.2V598.5H772.3V579.1H597.7H578.3V598.5V773.2H597.7Z" fill="black"/>
<path d="M0 598.5H174.6V773.2H194.1V598.5V579.1H174.6H0V598.5Z" fill="black"/>
</g>
<defs>
<clipPath id="clip0">
<rect width="772.4" height="773.2" fill="white"/>
</clipPath>
</defs>
</svg>
