<svg width="683" height="682" viewBox="0 0 683 682" fill="none" xmlns="http://www.w3.org/2000/svg">
<g clip-path="url(#clip0)">
<path d="M537.201 0H147.301V682H537.201V0Z" fill="#E4E4D6"/>
<path d="M175.4 0H0V682H175.4V0Z" fill="#0A6735"/>
<path d="M682.9 0H507.5V682H682.9V0Z" fill="#DF2328"/>
<path d="M458 212.3C379.4 212.3 304 212.3 224.5 212.3C239.1 220.8 236.4 232.2 236.4 242.7C236.5 303.8 236.4 364.9 236.4 426C236.4 443.3 244.9 451.8 262.1 451.8C276.8 451.9 291.7 452.6 306.3 451.6C321.6 450.5 333.7 454.5 341.7 469.7C349.8 454.7 361.7 450.5 377.1 451.6C392.5 452.7 408 452 423.4 451.8C436.4 451.6 443.4 445.4 445.1 432.7C445.7 428.2 446.1 423.6 446.1 419.1C446.2 362.2 446.1 305.3 446.2 248.5C446.4 235.9 442.8 222.4 458 212.3ZM312.8 432.5H257.7V357.4H312.8V432.5ZM312.8 299.9H257.7V229.3H312.8V299.9ZM424.9 432.5H369.8V357.4H424.9V432.5ZM424.9 299.9H369.8V229.3H424.9V299.9Z" fill="#434F83"/>
<path d="M426.5 228.4H256.1V434.2H426.5V228.4Z" fill="#DF2328"/>
<path d="M426.7 299.4H371.1V228.4H311.5V299.4H255.9V357.9H311.5V434.2H371.1V357.9H426.7V299.4Z" fill="white"/>
</g>
<defs>
<clipPath id="clip0">
<rect width="682.8" height="682" fill="white"/>
</clipPath>
</defs>
</svg>
